<svg class="logo--mobile" width="87" height="20" viewBox="0 0 87 20" fill="none" xmlns="http://www.w3.org/2000/svg">
          <path d="M0.666748 10.0224C0.666748 15.9791 4.80335 19.969 10.9792 19.969H17.1616V15.2954L11.0082 15.2943C7.87677 15.2943 6.03852 13.3276 6.03852 10.0213C6.03852 6.65846 7.87677 4.69173 11.0082 4.69173L17.1616 4.69387V0.019165H10.9792C4.80335 0.019165 0.666748 4.00914 0.666748 10.0224Z" fill="black"></path>
          <path d="M25.4101 0.00964355H20.1426V20H25.4101V0.00964355Z" fill="black"></path>
          <path d="M57.7546 12.1993H64.5185V7.63016H57.7546V4.65981H65.0947V0.00537109H52.5161V19.9947H65.3538V15.3115H57.7546V12.1993Z" fill="black"></path>
          <path d="M76.3338 0.00964355H68.3315V20H76.3338C82.5226 20 86.6667 16.0026 86.6667 9.97658C86.6667 4.00815 82.5215 0.00964355 76.3338 0.00964355ZM76.3048 15.3168H73.599V4.69288H76.3048C79.4417 4.69288 81.2842 6.6628 81.2842 9.97551C81.2842 13.3458 79.4417 15.3168 76.3048 15.3168Z" fill="black"></path>
          <path d="M44.6718 0L38.9635 9.32807L33.2542 0H28.3823V20H33.5466V9.01664L37.7778 16.314H40.1482L44.3794 9.01664V20H49.5437V0H44.6718Z" fill="black"></path>
        </svg>