<svg xmlns="http://www.w3.org/2000/svg" xmlns:xlink="http://www.w3.org/1999/xlink" id="Camada_1" x="0px" y="0px" width="622px" height="96px" viewBox="0 0 622 96" xml:space="preserve"><g>	<polygon fill-rule="evenodd" clip-rule="evenodd" fill="#30813E" points="315.8,62.2 192.8,62.2 192.8,90 315.8,90 315.8,62.2  "></polygon>	<path fill-rule="evenodd" clip-rule="evenodd" d="M329.1,15.6c0,1.4-0.5,2.5-1.4,3.5c-1,1-2.1,1.4-3.5,1.4c-1.4,0-2.5-0.5-3.5-1.4  c-1-1-1.4-2.1-1.4-3.5c0-1.4,0.5-2.5,1.4-3.5c1-1,2.1-1.4,3.5-1.4c1.4,0,2.5,0.5,3.5,1.4C328.6,13.1,329.1,14.2,329.1,15.6  L329.1,15.6z M328.5,15.6c0-1.2-0.4-2.2-1.3-3.1c-0.9-0.9-1.9-1.3-3.1-1.3c-1.2,0-2.2,0.4-3.1,1.3c-0.9,0.9-1.3,1.9-1.3,3.1  s0.4,2.2,1.3,3.1c0.9,0.9,1.9,1.3,3.1,1.3c1.2,0,2.2-0.4,3.1-1.3C328.1,17.8,328.5,16.8,328.5,15.6L328.5,15.6z M322.3,12.8h2.1  c0.7,0,1.3,0.1,1.6,0.4c0.3,0.3,0.5,0.6,0.5,1c0,0.4-0.2,0.8-0.5,1.1c-0.2,0.2-0.6,0.3-1.1,0.4c0.2,0.1,0.4,0.2,0.4,0.3  c0.1,0.1,0.2,0.2,0.4,0.5c0.2,0.3,0.3,0.5,0.4,0.6l0.5,1h-0.8l-0.5-0.9c-0.4-0.7-0.7-1.1-0.9-1.2c-0.2-0.1-0.5-0.2-1-0.2H323v2.3  h-0.7V12.8L322.3,12.8z M323,13.3v1.8h0.7c0.7,0,1.2,0,1.5-0.1c0.2,0,0.3-0.2,0.4-0.3c0.1-0.2,0.2-0.3,0.2-0.5  c0-0.3-0.1-0.5-0.3-0.7c-0.2-0.2-0.7-0.3-1.5-0.3H323L323,13.3z"></path>	<path fill="#040006" d="M329.2,15.6c0,0.7-0.1,1.3-0.4,1.9c-0.2,0.6-0.6,1.1-1.1,1.6v0c-0.5,0.5-1,0.9-1.6,1.1  c-0.6,0.2-1.2,0.4-1.9,0.4c-0.7,0-1.3-0.1-1.9-0.4c-0.6-0.2-1.1-0.6-1.6-1.1l0,0c-0.5-0.5-0.9-1-1.1-1.6c-0.2-0.6-0.4-1.2-0.4-1.9  c0-0.7,0.1-1.3,0.4-1.9c0.2-0.6,0.6-1.1,1.1-1.6h0c0.5-0.5,1-0.9,1.6-1.1c0.6-0.2,1.2-0.4,1.9-0.4c0.7,0,1.3,0.1,1.9,0.4  c0.6,0.2,1.1,0.6,1.6,1.1c0.5,0.5,0.9,1,1.1,1.6C329.1,14.3,329.2,14.9,329.2,15.6L329.2,15.6z M328.6,17.4  c0.2-0.6,0.3-1.2,0.3-1.8c0-0.7-0.1-1.3-0.3-1.8c-0.2-0.6-0.6-1.1-1.1-1.5v0c-0.5-0.5-1-0.8-1.5-1.1c-0.6-0.2-1.2-0.3-1.8-0.3  c-0.7,0-1.3,0.1-1.8,0.3c-0.6,0.2-1.1,0.6-1.5,1.1h0c-0.5,0.5-0.8,1-1.1,1.5c-0.2,0.6-0.4,1.2-0.4,1.8c0,0.7,0.1,1.3,0.3,1.8  c0.2,0.6,0.6,1.1,1.1,1.5h0c0.5,0.5,1,0.8,1.5,1.1c0.6,0.2,1.2,0.3,1.8,0.3c0.7,0,1.3-0.1,1.8-0.3c0.6-0.2,1.1-0.6,1.5-1.1v0  C328,18.5,328.4,18,328.6,17.4L328.6,17.4z M328.4,15.6c0-0.6-0.1-1.1-0.3-1.6c-0.2-0.5-0.5-1-0.9-1.4c-0.4-0.4-0.9-0.7-1.4-0.9h0  c-0.5-0.2-1-0.3-1.6-0.3c-0.6,0-1.1,0.1-1.6,0.3c-0.5,0.2-1,0.5-1.4,0.9c-0.4,0.4-0.7,0.9-0.9,1.4c-0.2,0.5-0.3,1-0.3,1.6  c0,1.2,0.4,2.2,1.2,3c0.4,0.4,0.9,0.7,1.4,0.9v0c0.5,0.2,1,0.3,1.6,0.3c0.6,0,1.1-0.1,1.6-0.3c0.5-0.2,1-0.5,1.4-0.9  c0.4-0.4,0.7-0.9,0.9-1.4h0C328.3,16.7,328.4,16.2,328.4,15.6L328.4,15.6z M328.3,13.9c0.2,0.5,0.3,1.1,0.3,1.7  c0,0.6-0.1,1.2-0.3,1.7v0c-0.2,0.5-0.5,1-1,1.5c-0.4,0.4-0.9,0.8-1.5,1c-0.5,0.2-1.1,0.3-1.7,0.3c-0.6,0-1.2-0.1-1.7-0.3h0  c-0.5-0.2-1-0.6-1.5-1c-0.9-0.9-1.3-1.9-1.3-3.2c0-0.6,0.1-1.2,0.3-1.7c0.2-0.5,0.5-1,1-1.5c0.4-0.4,0.9-0.8,1.5-1  c0.5-0.2,1.1-0.3,1.7-0.3c0.6,0,1.2,0.1,1.7,0.3v0c0.5,0.2,1,0.5,1.5,1C327.8,12.9,328.1,13.3,328.3,13.9L328.3,13.9z M322.3,12.6  h2.1c0.4,0,0.7,0,1,0.1c0.3,0.1,0.5,0.2,0.7,0.3l0,0c0.2,0.1,0.3,0.3,0.4,0.5c0.1,0.2,0.1,0.4,0.1,0.6c0,0.2,0,0.5-0.1,0.7  c-0.1,0.2-0.2,0.4-0.4,0.5l0,0c-0.1,0.1-0.3,0.2-0.5,0.3c-0.1,0-0.2,0.1-0.3,0.1c0.1,0,0.1,0.1,0.1,0.1l0,0c0,0,0.1,0.1,0.2,0.2  c0.1,0.1,0.1,0.2,0.2,0.3c0.1,0.1,0.2,0.2,0.2,0.4l0,0c0.1,0.1,0.1,0.2,0.2,0.3l0,0l0.5,1l0.1,0.2h-0.2h-0.8h-0.1l0-0.1l-0.5-0.9v0  c-0.2-0.3-0.4-0.6-0.5-0.8v0c-0.1-0.2-0.3-0.3-0.3-0.4l0,0c-0.1-0.1-0.2-0.1-0.4-0.1c-0.2,0-0.4,0-0.6,0h-0.3v2.2v0.1H323h-0.7  h-0.1v-0.1v-5.3v-0.1H322.3L322.3,12.6z M324.4,12.9h-1.9v5h0.4v-2.2v-0.1h0.1h0.4c0.2,0,0.5,0,0.6,0.1c0.2,0,0.3,0.1,0.5,0.2  c0.1,0.1,0.3,0.2,0.4,0.4h0c0.1,0.2,0.3,0.5,0.5,0.8l0,0l0.5,0.8h0.5l-0.4-0.8c0-0.1-0.1-0.2-0.2-0.3v0c-0.1-0.1-0.1-0.2-0.2-0.3  c-0.1-0.1-0.2-0.2-0.2-0.3c-0.1-0.1-0.1-0.1-0.2-0.2l0,0c0,0-0.1-0.1-0.2-0.1c-0.1,0-0.2-0.1-0.3-0.1l-0.4-0.2l0.4-0.1  c0.2,0,0.4-0.1,0.6-0.1c0.2-0.1,0.3-0.1,0.4-0.2c0.2-0.1,0.3-0.3,0.3-0.4v0c0.1-0.2,0.1-0.3,0.1-0.5c0-0.2,0-0.4-0.1-0.5  c-0.1-0.2-0.2-0.3-0.3-0.4c-0.1-0.1-0.3-0.2-0.6-0.3C325.1,12.9,324.8,12.9,324.4,12.9L324.4,12.9z M323.1,13.5V15h0.5  c0.4,0,0.7,0,0.9,0c0.2,0,0.4,0,0.5-0.1l0,0c0.1,0,0.1-0.1,0.2-0.1l0,0c0.1,0,0.1-0.1,0.2-0.2h0c0-0.1,0.1-0.1,0.1-0.2  c0-0.1,0-0.1,0-0.2c0-0.1,0-0.2-0.1-0.3l0,0c0-0.1-0.1-0.2-0.2-0.3c-0.1-0.1-0.2-0.1-0.4-0.2c-0.2,0-0.5-0.1-0.9-0.1H323.1  L323.1,13.5z M322.9,15.2v-1.8v-0.1h0.1h1c0.4,0,0.7,0,1,0.1c0.3,0.1,0.5,0.1,0.6,0.2c0.1,0.1,0.2,0.2,0.2,0.3  c0.1,0.1,0.1,0.3,0.1,0.4c0,0.1,0,0.2,0,0.3c0,0.1-0.1,0.2-0.1,0.3l0,0c-0.1,0.1-0.1,0.2-0.2,0.2v0c-0.1,0.1-0.2,0.1-0.3,0.1v0  c-0.1,0-0.3,0.1-0.6,0.1c-0.2,0-0.6,0-0.9,0H323h-0.1V15.2L322.9,15.2z"></path>	<path fill="#040006" d="M0,57v-1.9c0.1,0,0.2,0,0.4,0c0.2,0,0.3,0,0.4,0c1.4,0,2.4-0.5,3-1.6c0.6-1.1,0.9-2.9,0.9-5.4V18.8  c0-2.3-0.3-3.7-0.9-4.3c-0.6-0.6-1.8-0.9-3.5-0.9H0v-1.9h16.5L23,39.3l6.5-27.7h16.4v1.9H45c-1.2,0-2.1,0.3-2.6,0.8  c-0.5,0.5-0.7,1.5-0.7,3v34c0,1.4,0.2,2.4,0.7,3c0.5,0.5,1.3,0.8,2.6,0.8h0.9V57H27.2v-1.9h1.2c1.2,0,2.1-0.3,2.6-0.8  c0.5-0.5,0.7-1.5,0.7-3V13.7L21.4,57h-3.7L7.4,14.1v34.3c0,2.6,0.3,4.4,1,5.3c0.6,0.9,1.8,1.4,3.6,1.4V57H0L0,57z"></path>	<path fill="#040006" d="M66.7,56.1c2.4,0,4.1-1.2,5-3.5c0.9-2.3,1.4-7.6,1.4-15.8v-3.5c0-9.2-0.5-15-1.4-17.3  c-0.9-2.3-2.6-3.5-5-3.5c-2.4,0-4.1,1.2-5,3.5c-0.9,2.3-1.4,8.4-1.4,18.3c0,9.9,0.5,16,1.4,18.3C62.7,55,64.3,56.1,66.7,56.1  L66.7,56.1z M66.7,10.6c5,0,9.1,2.2,12.3,6.6c3.2,4.4,4.8,10.1,4.8,17.1c0,7-1.6,12.7-4.8,17.1c-3.2,4.4-7.3,6.6-12.3,6.6  c-5,0-9-2.2-12.3-6.6c-3.2-4.4-4.9-10.1-4.9-17.1c0-7,1.6-12.7,4.9-17.1C57.7,12.8,61.8,10.6,66.7,10.6L66.7,10.6z"></path>	<path fill="#040006" d="M86.8,57v-1.9c1.9-0.2,3.1-0.8,3.8-1.7c0.7-0.9,1-2.8,1-5.7V19c0-2.2-0.3-3.7-0.9-4.4c-0.6-0.7-1.9-1-3.6-1  h-0.3v-1.9h13.3l18.1,32.8V21.1c0-2.9-0.4-4.8-1.1-5.8c-0.7-1-2-1.6-3.8-1.6l0-1.9h12.1v1.9c-1.7,0.1-2.9,0.7-3.5,1.7  c-0.6,1-1,2.9-1,5.8v36.1h-6.7L94.3,21v26.7c0,3.1,0.3,5,1,6c0.6,0.9,1.8,1.4,3.6,1.5V57H86.8L86.8,57z"></path>	<path fill="#040006" d="M141.7,32.2h3.1c2.7,0,4.6-0.7,5.7-2c1-1.4,1.6-3.9,1.6-7.8c0-3.4-0.4-5.8-1.3-7.1  c-0.9-1.3-2.5-1.9-4.8-1.9c-2,0-3.2,0.2-3.6,0.7c-0.4,0.5-0.6,1.7-0.6,3.7V32.2L141.7,32.2z M141.7,51.3c0,1.4,0.2,2.4,0.7,3  c0.5,0.5,1.3,0.8,2.6,0.8h0.7V57h-18.2v-1.9h0.9c1.2,0,2.1-0.3,2.6-0.8c0.5-0.5,0.7-1.5,0.7-3v-34c0-1.4-0.2-2.4-0.7-3  c-0.5-0.5-1.3-0.8-2.6-0.8h-0.9v-1.9H147c5.3,0,9.3,0.9,11.9,2.7c2.6,1.8,3.9,4.5,3.9,8.2c0,2.9-1,5.3-3.1,7.2  c-2.1,1.9-5,3.2-8.7,3.7c3.5,0.9,5.8,2.1,7,3.6c1.2,1.6,1.8,5.2,1.8,10.8v0.4v2.1c0,1.2,0.2,2.1,0.5,2.7c0.3,0.6,0.8,0.9,1.5,0.9  c0.8,0,1.4-0.4,1.7-1.3c0.4-0.9,0.6-2.1,0.6-3.8v-0.4h2.1v1.4c0,2.6-0.7,4.6-2.1,6c-1.4,1.4-3.5,2-6.3,2c-1.7,0-3.2-0.3-4.4-1  c-1.2-0.7-2-1.6-2.6-2.9c-0.5-1.2-0.7-4.1-0.8-8.6c0-1.5,0-2.6-0.1-3.4c-0.1-3.1-0.6-5.1-1.6-6.1c-0.9-1-2.7-1.5-5.2-1.5  c-0.2,0-0.4,0-0.7,0c-0.3,0-0.6,0-0.8,0V51.3L141.7,51.3z"></path>	<path fill="#040006" d="M167.8,57v-2h0.9c1.3,0,2.1-0.3,2.6-0.8c0.5-0.5,0.7-1.5,0.7-2.9v-34c0-1.5-0.2-2.4-0.7-3  c-0.5-0.5-1.3-0.8-2.6-0.8h-0.9v-1.9h33.7l0.2,13.8h-1.9c-1.1-4.3-2.7-7.3-5-9.1c-2.2-1.8-5.4-2.7-9.7-2.7c-1.3,0-2.1,0.2-2.5,0.7  c-0.4,0.5-0.6,1.5-0.6,3v14h0.8c2.8,0,4.9-0.7,6.3-2.1c1.4-1.4,2.2-3.7,2.4-6.8h1.9v20.1h-1.9c-0.1-3-0.9-5.2-2.4-6.8  c-1.5-1.5-3.6-2.3-6.3-2.3H182v18.2c0,1.5,0.2,2.4,0.7,2.8c0.5,0.4,1.4,0.6,2.7,0.6c3.9,0,7.1-1.1,9.6-3.2c2.5-2.1,4.1-5.2,4.9-9.3  h2L201.4,57H167.8L167.8,57z"></path>	<path fill="#040006" d="M204.1,57v-1.9h0.4c1.7,0,3-0.6,4.1-1.7c1.1-1.2,2-3.2,2.9-6l10.9-35.7h4.5l11.3,37.7  c0.7,2.3,1.4,3.8,2.3,4.6c0.9,0.8,2.1,1.2,3.7,1.2V57h-19.9v-1.9c0.1,0,0.3,0,0.5,0c0.2,0,0.4,0,0.5,0c1.2,0,2-0.2,2.6-0.5  c0.6-0.4,0.9-0.9,0.9-1.6c0-0.5,0-0.9-0.1-1.3c-0.1-0.4-0.2-0.8-0.3-1.2l-1.3-4.3h-12.3l-0.8,2.8c-0.2,0.7-0.3,1.2-0.4,1.6  c-0.1,0.4-0.1,0.8-0.1,1.1c0,1.2,0.3,2,1,2.6c0.7,0.6,1.6,0.9,3,0.9h0.5V57H204.1L204.1,57z M215.6,43h10.6L221,24.7L215.6,43  L215.6,43z"></path>	<path fill="#040006" d="M245.7,57v-2h0.9c1.3,0,2.1-0.3,2.6-0.8c0.5-0.5,0.7-1.5,0.7-2.9v-34c0-1.5-0.2-2.4-0.7-3  c-0.5-0.5-1.3-0.8-2.6-0.8h-0.9v-1.9h18.6v1.9h-1.1c-1.2,0-2.1,0.3-2.6,0.8c-0.5,0.5-0.7,1.5-0.7,3v33.4c0,1.7,0.2,2.9,0.6,3.4  c0.4,0.6,1.1,0.9,2.2,0.9c3.3,0,6.2-1.4,8.7-4.2c2.5-2.8,4.3-6.8,5.5-11.8h2.1L278.2,57H245.7L245.7,57z"></path>	<path fill="#040006" d="M281.7,57v-2h0.9c1.3,0,2.1-0.3,2.6-0.8c0.5-0.5,0.7-1.5,0.7-2.9v-34c0-1.5-0.2-2.4-0.7-3  c-0.5-0.5-1.3-0.8-2.6-0.8h-0.9v-1.9h33.7l0.2,13.8h-1.9c-1.1-4.3-2.7-7.3-5-9.1c-2.2-1.8-5.4-2.7-9.7-2.7c-1.3,0-2.1,0.2-2.5,0.7  c-0.4,0.5-0.6,1.5-0.6,3v14h0.8c2.8,0,4.9-0.7,6.3-2.1c1.4-1.4,2.2-3.7,2.4-6.8h1.9v20.1h-1.9c-0.1-3-0.9-5.2-2.4-6.8  c-1.5-1.5-3.6-2.3-6.3-2.3h-0.7v18.2c0,1.5,0.2,2.4,0.7,2.8c0.5,0.4,1.4,0.6,2.7,0.6c3.9,0,7.1-1.1,9.6-3.2  c2.5-2.1,4.1-5.2,4.9-9.3h2L315.2,57H281.7L281.7,57z"></path>	<path fill="#FFFFFF" d="M207.9,78.1v5.4h-4.1V68.7h5c4.1,0,6.2,1.5,6.2,4.4c0,1.7-0.9,3.1-2.6,4l4.4,6.5h-4.7l-3.2-5.4H207.9  L207.9,78.1z M207.9,75.1h0.8c1.4,0,2.2-0.6,2.2-1.9c0-1-0.7-1.5-2.1-1.5h-0.8V75.1L207.9,75.1z"></path>	<polygon fill="#FFFFFF" points="231.8,83.6 222.8,83.6 222.8,68.7 231.8,68.7 231.8,71.9 226.9,71.9 226.9,74.2 231.4,74.2   231.4,77.5 226.9,77.5 226.9,80.3 231.8,80.3 231.8,83.6  "></polygon>	<path fill="#FFFFFF" d="M249,79.1c0,0.9-0.2,1.7-0.7,2.5c-0.5,0.7-1.2,1.3-2.1,1.7c-0.9,0.4-2,0.6-3.2,0.6c-1,0-1.9-0.1-2.6-0.2  c-0.7-0.1-1.4-0.4-2.1-0.7v-3.6c0.8,0.4,1.6,0.7,2.4,0.9c0.8,0.2,1.6,0.3,2.3,0.3c0.6,0,1.1-0.1,1.3-0.3c0.3-0.2,0.4-0.5,0.4-0.8  c0-0.2-0.1-0.4-0.2-0.5c-0.1-0.2-0.3-0.3-0.5-0.5c-0.3-0.2-0.9-0.5-2-1c-1-0.4-1.7-0.9-2.2-1.3c-0.5-0.4-0.9-0.9-1.1-1.4  c-0.2-0.5-0.4-1.2-0.4-1.9c0-1.4,0.5-2.4,1.5-3.2c1-0.8,2.4-1.2,4.2-1.2c1.6,0,3.2,0.4,4.8,1.1l-1.3,3.1c-1.4-0.6-2.7-1-3.7-1  c-0.5,0-0.9,0.1-1.2,0.3c-0.2,0.2-0.4,0.4-0.4,0.7c0,0.3,0.2,0.6,0.5,0.8c0.3,0.2,1.1,0.7,2.5,1.3c1.3,0.6,2.2,1.2,2.7,1.9  C248.7,77.2,249,78,249,79.1L249,79.1z"></path>	<path fill="#FFFFFF" d="M270.1,76.1c0,2.5-0.6,4.4-1.9,5.7c-1.3,1.3-3.1,2-5.5,2c-2.4,0-4.2-0.7-5.5-2c-1.3-1.3-1.9-3.2-1.9-5.7  c0-2.5,0.6-4.4,1.9-5.7c1.3-1.3,3.1-2,5.5-2c2.4,0,4.3,0.7,5.5,2C269.5,71.7,270.1,73.6,270.1,76.1L270.1,76.1z M259.7,76.1  c0,2.9,1,4.3,3.1,4.3c1,0,1.8-0.4,2.3-1.1c0.5-0.7,0.8-1.8,0.8-3.3c0-1.5-0.3-2.6-0.8-3.3c-0.5-0.7-1.3-1.1-2.3-1.1  C260.7,71.7,259.7,73.2,259.7,76.1L259.7,76.1z"></path>	<path fill="#FFFFFF" d="M281.6,78.1v5.4h-4.1V68.7h5c4.1,0,6.2,1.5,6.2,4.4c0,1.7-0.9,3.1-2.6,4l4.4,6.5h-4.7l-3.2-5.4H281.6  L281.6,78.1z M281.6,75.1h0.8c1.4,0,2.2-0.6,2.2-1.9c0-1-0.7-1.5-2.1-1.5h-0.8V75.1L281.6,75.1z"></path>	<polygon fill="#FFFFFF" points="303.2,83.6 299.1,83.6 299.1,72 295.3,72 295.3,68.7 306.9,68.7 306.9,72 303.2,72 303.2,83.6  "></polygon>	<polygon fill="#040006" points="359.2,96 356.4,96 356.4,0 359.2,0 359.2,96  "></polygon>	<path fill="#040006" d="M403.8,14.4c0,1.6-0.5,2.8-1.4,3.6c-0.9,0.9-2.2,1.3-4,1.3h-1.1V24h-3.8V9.9h4.9c1.8,0,3.1,0.4,4,1.2  C403.4,11.9,403.8,13,403.8,14.4L403.8,14.4z M397.4,16.3h0.7c0.6,0,1-0.2,1.4-0.5c0.3-0.3,0.5-0.8,0.5-1.3c0-0.9-0.5-1.4-1.6-1.4  h-1V16.3L397.4,16.3z"></path>	<path fill="#040006" d="M417.4,24l-0.7-2.6h-4.6l-0.7,2.6h-4.2l4.6-14.1h5.1l4.7,14.1H417.4L417.4,24z M416,18.3l-0.6-2.3  c-0.1-0.5-0.3-1.2-0.5-2c-0.2-0.8-0.3-1.4-0.4-1.8c-0.1,0.3-0.2,0.9-0.3,1.6c-0.2,0.7-0.5,2.2-1.1,4.4H416L416,18.3z"></path>	<path fill="#040006" d="M430.7,18.9V24h-3.8V9.9h4.6c3.8,0,5.7,1.4,5.7,4.2c0,1.6-0.8,2.9-2.4,3.8l4.1,6.1h-4.3l-3-5.1H430.7  L430.7,18.9z M430.7,16h0.7c1.3,0,2-0.6,2-1.8c0-1-0.7-1.5-2-1.5h-0.8V16L430.7,16z"></path>	<path fill="#040006" d="M457.1,17c0,3.2-1,5.3-3,6.5l3.4,4h-4.7l-2.5-3.1l0,0v0l0,0c-2.2,0-3.9-0.6-5.1-1.9c-1.2-1.2-1.8-3-1.8-5.4  c0-2.3,0.6-4.1,1.8-5.4c1.2-1.2,2.9-1.9,5.1-1.9c2.2,0,3.9,0.6,5.1,1.8C456.5,12.8,457.1,14.6,457.1,17L457.1,17z M447.4,17  c0,2.7,0.9,4.1,2.8,4.1c1,0,1.7-0.3,2.1-1c0.5-0.7,0.7-1.7,0.7-3.1c0-1.4-0.2-2.4-0.7-3.1c-0.5-0.7-1.2-1-2.1-1  C448.4,12.8,447.4,14.2,447.4,17L447.4,17z"></path>	<path fill="#040006" d="M475.3,9.9v8.5c0,1.8-0.5,3.3-1.6,4.3c-1,1-2.5,1.5-4.5,1.5c-1.9,0-3.4-0.5-4.4-1.5c-1-1-1.5-2.4-1.5-4.2  V9.9h3.8v8.3c0,1,0.2,1.7,0.6,2.2c0.4,0.4,0.9,0.7,1.6,0.7c0.8,0,1.3-0.2,1.7-0.7c0.3-0.4,0.5-1.2,0.5-2.2V9.9H475.3L475.3,9.9z"></path>	<polygon fill="#040006" points="490.4,24 482,24 482,9.9 490.4,9.9 490.4,13 485.8,13 485.8,15.2 490.1,15.2 490.1,18.3   485.8,18.3 485.8,20.9 490.4,20.9 490.4,24  "></polygon>	<path fill="#040006" d="M402.2,48.6l-0.7-2.6H397l-0.7,2.6h-4.2l4.6-14.1h5.1l4.7,14.1H402.2L402.2,48.6z M400.7,42.8l-0.6-2.3  c-0.1-0.5-0.3-1.2-0.5-2c-0.2-0.8-0.3-1.4-0.4-1.8c-0.1,0.3-0.2,0.9-0.3,1.6c-0.2,0.7-0.5,2.2-1.1,4.4H400.7L400.7,42.8z"></path>	<path fill="#040006" d="M424.4,41.5c0,3.2-1,5.3-3,6.5l3.4,4h-4.7l-2.5-3.1l0,0v0l0,0c-2.2,0-3.9-0.6-5.1-1.9  c-1.2-1.2-1.8-3-1.8-5.4c0-2.3,0.6-4.1,1.8-5.4c1.2-1.2,2.9-1.9,5.1-1.9c2.2,0,3.9,0.6,5.1,1.8C423.8,37.4,424.4,39.2,424.4,41.5  L424.4,41.5z M414.7,41.5c0,2.7,0.9,4.1,2.8,4.1c1,0,1.7-0.3,2.1-1c0.5-0.7,0.7-1.7,0.7-3.1c0-1.4-0.2-2.4-0.7-3.1  c-0.5-0.7-1.2-1-2.1-1C415.7,37.4,414.7,38.8,414.7,41.5L414.7,41.5z"></path>	<path fill="#040006" d="M442.7,34.5V43c0,1.8-0.5,3.3-1.6,4.3c-1,1-2.5,1.5-4.5,1.5c-1.9,0-3.4-0.5-4.4-1.5c-1-1-1.5-2.4-1.5-4.2  v-8.6h3.8v8.3c0,1,0.2,1.7,0.6,2.2c0.4,0.4,0.9,0.7,1.6,0.7c0.8,0,1.3-0.2,1.7-0.7c0.3-0.4,0.5-1.2,0.5-2.2v-8.2H442.7L442.7,34.5z  "></path>	<path fill="#040006" d="M457.8,48.6l-0.7-2.6h-4.6l-0.7,2.6h-4.2l4.6-14.1h5.1l4.7,14.1H457.8L457.8,48.6z M456.3,42.8l-0.6-2.3  c-0.1-0.5-0.3-1.2-0.5-2c-0.2-0.8-0.3-1.4-0.4-1.8c-0.1,0.3-0.2,0.9-0.3,1.6c-0.2,0.7-0.5,2.2-1.1,4.4H456.3L456.3,42.8z   M452.8,33.4v-0.3c1-1.1,1.6-1.7,1.9-2c0.3-0.3,0.5-0.6,0.7-0.8h4.1v0.2c-0.5,0.4-1.2,0.9-2.1,1.6c-0.9,0.6-1.6,1.1-2,1.4H452.8  L452.8,33.4z"></path>	<polygon fill="#040006" points="472,48.6 468.2,48.6 468.2,37.6 464.8,37.6 464.8,34.5 475.5,34.5 475.5,37.6 472,37.6 472,48.6    "></polygon>	<polygon fill="#040006" points="481.2,48.6 481.2,34.5 485,34.5 485,48.6 481.2,48.6  "></polygon>	<path fill="#040006" d="M498.1,37.4c-0.9,0-1.6,0.4-2.1,1.1c-0.5,0.7-0.8,1.8-0.8,3.1c0,2.7,1,4.1,3.1,4.1c0.6,0,1.2-0.1,1.8-0.3  c0.6-0.2,1.2-0.4,1.8-0.6V48c-1.2,0.5-2.5,0.8-4,0.8c-2.1,0-3.8-0.6-4.9-1.9c-1.1-1.2-1.7-3-1.7-5.3c0-1.5,0.3-2.7,0.8-3.8  c0.5-1.1,1.3-2,2.4-2.5c1-0.6,2.2-0.9,3.6-0.9c1.5,0,3,0.3,4.4,1l-1.2,3c-0.5-0.2-1-0.5-1.6-0.6C499.2,37.5,498.7,37.4,498.1,37.4  L498.1,37.4z"></path>	<path fill="#040006" d="M521.1,41.5c0,2.4-0.6,4.2-1.7,5.4c-1.2,1.2-2.9,1.9-5.1,1.9c-2.2,0-3.9-0.6-5.1-1.9  c-1.2-1.2-1.8-3-1.8-5.4c0-2.3,0.6-4.1,1.8-5.4c1.2-1.2,2.9-1.9,5.1-1.9c2.2,0,3.9,0.6,5.1,1.8C520.5,37.4,521.1,39.2,521.1,41.5  L521.1,41.5z M511.4,41.5c0,2.7,0.9,4.1,2.8,4.1c1,0,1.7-0.3,2.1-1c0.5-0.7,0.7-1.7,0.7-3.1c0-1.4-0.2-2.4-0.7-3.1  c-0.5-0.7-1.2-1-2.1-1C512.4,37.4,511.4,38.8,511.4,41.5L511.4,41.5z"></path>	<path fill="#040006" d="M402.4,72.8c0,1.6-0.5,2.8-1.4,3.7c-0.9,0.9-2.3,1.3-4,1.3h-1.1v4.7h-3.8V68.3h4.9c1.8,0,3.1,0.4,4.1,1.2  C401.9,70.3,402.4,71.4,402.4,72.8L402.4,72.8z M395.9,74.7h0.7c0.6,0,1-0.2,1.4-0.5c0.3-0.3,0.5-0.8,0.5-1.3c0-1-0.5-1.4-1.6-1.4  h-1V74.7L395.9,74.7z"></path>	<path fill="#040006" d="M421.8,75.4c0,2.4-0.6,4.2-1.8,5.5c-1.2,1.2-2.9,1.9-5.2,1.9c-2.2,0-3.9-0.6-5.1-1.9  c-1.2-1.3-1.8-3.1-1.8-5.5c0-2.4,0.6-4.2,1.8-5.4c1.2-1.2,2.9-1.9,5.2-1.9c2.3,0,4,0.6,5.2,1.9C421.2,71.2,421.8,73,421.8,75.4  L421.8,75.4z M412,75.4c0,2.8,1,4.1,2.9,4.1c1,0,1.7-0.3,2.2-1c0.5-0.7,0.7-1.7,0.7-3.1c0-1.4-0.2-2.5-0.7-3.2  c-0.5-0.7-1.2-1-2.1-1C412.9,71.2,412,72.6,412,75.4L412,75.4z"></path>	<path fill="#040006" d="M434.5,71.2c-0.9,0-1.6,0.4-2.1,1.1c-0.5,0.8-0.8,1.8-0.8,3.1c0,2.7,1,4.1,3.1,4.1c0.6,0,1.2-0.1,1.8-0.3  c0.6-0.2,1.2-0.4,1.8-0.6v3.3c-1.2,0.5-2.5,0.8-4,0.8c-2.2,0-3.8-0.6-4.9-1.9c-1.1-1.2-1.7-3-1.7-5.4c0-1.5,0.3-2.8,0.8-3.9  c0.6-1.1,1.4-2,2.4-2.6c1-0.6,2.3-0.9,3.7-0.9c1.5,0,3,0.3,4.4,1l-1.2,3c-0.5-0.2-1.1-0.5-1.6-0.6  C435.6,71.3,435.1,71.2,434.5,71.2L434.5,71.2z M436,85c0,0.7-0.2,1.3-0.7,1.7c-0.5,0.4-1.1,0.6-1.9,0.6c-0.9,0-1.6-0.1-2.1-0.3v-2  c0.5,0.2,1,0.3,1.4,0.3c0.3,0,0.5-0.2,0.5-0.5c0-0.2-0.1-0.4-0.4-0.6c-0.3-0.2-0.6-0.3-1-0.4l0.7-1.4h2l-0.1,0.3  c0.6,0.3,1.1,0.6,1.3,0.9C435.8,84.1,436,84.5,436,85L436,85z"></path>	<path fill="#040006" d="M457.8,75.4c0,2.4-0.6,4.2-1.8,5.5c-1.2,1.2-2.9,1.9-5.2,1.9c-2.2,0-3.9-0.6-5.1-1.9  c-1.2-1.3-1.8-3.1-1.8-5.5c0-2.4,0.6-4.2,1.8-5.4c1.2-1.2,2.9-1.9,5.2-1.9c2.3,0,4,0.6,5.2,1.9C457.2,71.2,457.8,73,457.8,75.4  L457.8,75.4z M448,75.4c0,2.8,1,4.1,2.9,4.1c1,0,1.7-0.3,2.2-1c0.5-0.7,0.7-1.7,0.7-3.1c0-1.4-0.2-2.5-0.7-3.2  c-0.5-0.7-1.2-1-2.1-1C448.9,71.2,448,72.6,448,75.4L448,75.4z"></path>	<path fill="#040006" d="M473.4,78.2c0,0.9-0.2,1.7-0.7,2.4c-0.4,0.7-1.1,1.2-1.9,1.6c-0.8,0.4-1.8,0.6-3,0.6  c-0.9,0-1.7-0.1-2.4-0.2c-0.6-0.1-1.3-0.4-2-0.7v-3.4c0.7,0.4,1.5,0.7,2.3,0.9c0.8,0.2,1.5,0.3,2.2,0.3c0.6,0,1-0.1,1.3-0.3  c0.3-0.2,0.4-0.5,0.4-0.8c0-0.2-0.1-0.4-0.2-0.5c-0.1-0.1-0.3-0.3-0.5-0.4c-0.2-0.1-0.9-0.5-1.9-0.9c-0.9-0.4-1.6-0.8-2.1-1.2  c-0.5-0.4-0.8-0.9-1-1.4c-0.2-0.5-0.3-1.1-0.3-1.8c0-1.3,0.5-2.3,1.4-3.1c1-0.7,2.3-1.1,3.9-1.1c1.5,0,3,0.3,4.5,1l-1.2,3  c-1.3-0.6-2.5-0.9-3.4-0.9c-0.5,0-0.9,0.1-1.1,0.3c-0.2,0.2-0.3,0.4-0.3,0.7c0,0.3,0.1,0.5,0.4,0.8c0.3,0.2,1.1,0.6,2.3,1.2  c1.2,0.6,2.1,1.1,2.6,1.8C473.2,76.5,473.4,77.3,473.4,78.2L473.4,78.2z"></path>	<path fill="#040006" d="M498.2,75.1c0,2.4-0.7,4.2-2,5.5c-1.3,1.3-3.1,1.9-5.5,1.9h-4.6V68.3h4.9c2.3,0,4,0.6,5.3,1.8  C497.6,71.2,498.2,72.9,498.2,75.1L498.2,75.1z M494.3,75.3c0-1.3-0.3-2.3-0.8-2.9c-0.5-0.6-1.3-0.9-2.4-0.9H490v8h0.9  c1.2,0,2-0.3,2.6-1C494,77.7,494.3,76.7,494.3,75.3L494.3,75.3z"></path>	<polygon fill="#040006" points="513,82.5 504.6,82.5 504.6,68.3 513,68.3 513,71.4 508.4,71.4 508.4,73.6 512.7,73.6 512.7,76.7   508.4,76.7 508.4,79.4 513,79.4 513,82.5  "></polygon>	<path fill="#040006" d="M532.4,71.2c-0.9,0-1.6,0.4-2.1,1.1c-0.5,0.8-0.8,1.8-0.8,3.1c0,2.7,1,4.1,3.1,4.1c0.6,0,1.2-0.1,1.8-0.3  c0.6-0.2,1.2-0.4,1.8-0.6v3.3c-1.2,0.5-2.5,0.8-4,0.8c-2.2,0-3.8-0.6-4.9-1.9c-1.1-1.2-1.7-3-1.7-5.4c0-1.5,0.3-2.8,0.8-3.9  c0.6-1.1,1.4-2,2.4-2.6c1-0.6,2.3-0.9,3.7-0.9c1.5,0,3,0.3,4.4,1l-1.2,3c-0.5-0.2-1.1-0.5-1.6-0.6C533.6,71.3,533,71.2,532.4,71.2  L532.4,71.2z"></path>	<path fill="#040006" d="M551.5,82.5l-0.7-2.7h-4.6l-0.7,2.7h-4.2l4.6-14.3h5.1l4.7,14.3H551.5L551.5,82.5z M550,76.7l-0.6-2.3  c-0.1-0.5-0.3-1.2-0.5-2c-0.2-0.8-0.3-1.4-0.4-1.8c-0.1,0.3-0.2,0.9-0.3,1.6c-0.2,0.8-0.6,2.3-1.1,4.5H550L550,76.7z"></path>	<polygon fill="#040006" points="561,82.5 561,68.3 564.9,68.3 564.9,79.4 570.4,79.4 570.4,82.5 561,82.5  "></polygon>	<path fill="#040006" d="M588.5,75.1c0,2.4-0.7,4.2-2,5.5c-1.3,1.3-3.1,1.9-5.5,1.9h-4.6V68.3h4.9c2.3,0,4,0.6,5.3,1.8  C587.9,71.2,588.5,72.9,588.5,75.1L588.5,75.1z M584.5,75.3c0-1.3-0.3-2.3-0.8-2.9c-0.5-0.6-1.3-0.9-2.4-0.9h-1.1v8h0.9  c1.2,0,2-0.3,2.6-1C584.3,77.7,584.5,76.7,584.5,75.3L584.5,75.3z"></path>	<path fill="#040006" d="M603.2,82.5l-0.7-2.7h-4.6l-0.7,2.7h-4.2l4.6-14.3h5.1l4.7,14.3H603.2L603.2,82.5z M601.7,76.7l-0.6-2.3  c-0.1-0.5-0.3-1.2-0.5-2c-0.2-0.8-0.3-1.4-0.4-1.8c-0.1,0.3-0.2,0.9-0.3,1.6c-0.2,0.8-0.6,2.3-1.1,4.5H601.7L601.7,76.7z"></path>	<path fill="#040006" d="M622,78.2c0,0.9-0.2,1.7-0.7,2.4c-0.4,0.7-1.1,1.2-1.9,1.6c-0.8,0.4-1.8,0.6-3,0.6c-0.9,0-1.7-0.1-2.4-0.2  c-0.6-0.1-1.3-0.4-2-0.7v-3.4c0.7,0.4,1.5,0.7,2.3,0.9c0.8,0.2,1.5,0.3,2.2,0.3c0.6,0,1-0.1,1.3-0.3c0.3-0.2,0.4-0.5,0.4-0.8  c0-0.2-0.1-0.4-0.2-0.5c-0.1-0.1-0.3-0.3-0.5-0.4c-0.2-0.1-0.9-0.5-1.9-0.9c-0.9-0.4-1.6-0.8-2.1-1.2c-0.5-0.4-0.8-0.9-1-1.4  c-0.2-0.5-0.3-1.1-0.3-1.8c0-1.3,0.5-2.3,1.4-3.1c1-0.7,2.3-1.1,3.9-1.1c1.5,0,3,0.3,4.5,1l-1.2,3c-1.3-0.6-2.5-0.9-3.4-0.9  c-0.5,0-0.9,0.1-1.1,0.3c-0.2,0.2-0.3,0.4-0.3,0.7c0,0.3,0.1,0.5,0.4,0.8c0.3,0.2,1.1,0.6,2.3,1.2c1.2,0.6,2.1,1.1,2.6,1.8  C621.8,76.5,622,77.3,622,78.2L622,78.2z"></path></g></svg>