<svg width="336" height="311" viewBox="0 0 336 311" fill="none" xmlns="http://www.w3.org/2000/svg">
<path d="M30.8701 212.95C31.3701 212.71 31.9901 212.58 32.7301 212.58H35.6901C36.2601 212.58 36.6801 212.77 36.9501 213.14C37.2201 213.51 37.4101 213.93 37.5101 214.38L37.8301 217.21C38.2801 216.54 38.8001 215.9 39.3901 215.28C39.9801 214.66 40.6801 214.12 41.4901 213.64C42.3001 213.17 43.2501 212.79 44.3401 212.51C45.4301 212.23 46.6901 212.08 48.1401 212.08C49.5101 212.08 50.7501 212.21 51.8701 212.48C52.9901 212.74 53.9901 213.14 54.8901 213.66C55.7901 214.18 56.6001 214.82 57.3301 215.57C58.0501 216.33 58.7101 217.19 59.3001 218.18C59.7701 217.26 60.4101 216.41 61.2101 215.65C62.0101 214.88 62.9401 214.23 63.9901 213.69C65.0401 213.15 66.1901 212.73 67.4401 212.44C68.6901 212.15 69.9901 212 71.3401 212C73.6501 212 75.6801 212.42 77.4301 213.26C79.1801 214.1 80.6401 215.26 81.8201 216.72C82.9901 218.19 83.8801 219.9 84.4801 221.85C85.0801 223.81 85.3801 225.9 85.3801 228.13V247.7C85.3801 248.4 85.2101 248.94 84.8801 249.3C84.5501 249.66 84.0701 249.84 83.4401 249.84H78.9801C78.2001 249.84 77.6701 249.69 77.4101 249.4C77.1501 249.11 77.0101 248.59 77.0101 247.85V228.15C77.0101 227.11 76.8601 226.11 76.5701 225.13C76.2801 224.15 75.8201 223.29 75.2001 222.54C74.5801 221.79 73.8101 221.18 72.8801 220.72C71.9501 220.26 70.8401 220.03 69.5501 220.03C68.4701 220.03 67.4701 220.22 66.5501 220.6C65.6301 220.98 64.8401 221.53 64.1701 222.24C63.5001 222.95 62.9801 223.81 62.6001 224.82C62.2201 225.83 62.0301 226.94 62.0301 228.18V247.73C62.0301 249.14 61.3901 249.84 60.1201 249.84H55.6301C54.8501 249.84 54.3301 249.69 54.0801 249.4C53.8201 249.11 53.7001 248.59 53.7001 247.85V228.18C53.7001 227.16 53.5601 226.17 53.2701 225.2C52.9901 224.23 52.5501 223.37 51.9501 222.61C51.3501 221.85 50.5901 221.23 49.6501 220.76C48.7101 220.29 47.5901 220.06 46.3001 220.06C45.4001 220.06 44.5001 220.23 43.6001 220.57C42.7001 220.91 41.8801 221.41 41.1501 222.05C40.4201 222.7 39.8101 223.49 39.3401 224.42C38.8701 225.36 38.6301 226.42 38.6101 227.61V248.1C38.6101 248.61 38.4401 249.02 38.1101 249.34C37.7801 249.66 37.3601 249.82 36.8501 249.82H32.0001C31.3501 249.82 30.8801 249.67 30.5801 249.37C30.2801 249.07 30.1201 248.63 30.1201 248.06V214.29C30.1201 213.62 30.3701 213.17 30.8701 212.93" fill="#CF1417"/>
<path d="M89.9001 231.27C89.9001 229.49 90.1301 227.77 90.5901 226.12C91.0501 224.47 91.7001 222.93 92.5401 221.5C93.3801 220.07 94.3902 218.78 95.5602 217.61C96.7302 216.45 98.0301 215.45 99.4601 214.62C100.89 213.79 102.42 213.14 104.05 212.68C105.68 212.22 107.39 211.99 109.17 211.99C110.95 211.99 112.63 212.22 114.27 212.68C115.91 213.14 117.44 213.79 118.86 214.62C120.28 215.45 121.57 216.45 122.75 217.61C123.92 218.77 124.93 220.07 125.77 221.5C126.61 222.93 127.26 224.47 127.72 226.12C128.18 227.77 128.41 229.49 128.41 231.27C128.41 233.05 128.18 234.76 127.72 236.4C127.26 238.04 126.61 239.57 125.77 240.99C124.93 242.41 123.92 243.7 122.75 244.88C121.58 246.05 120.28 247.06 118.86 247.89C117.44 248.72 115.91 249.37 114.27 249.83C112.63 250.29 110.93 250.52 109.17 250.52C107.41 250.52 105.68 250.29 104.05 249.83C102.42 249.37 100.89 248.72 99.4601 247.89C98.0301 247.06 96.7302 246.06 95.5602 244.88C94.3902 243.7 93.3801 242.41 92.5401 240.99C91.7001 239.57 91.0501 238.04 90.5901 236.4C90.1301 234.76 89.9001 233.05 89.9001 231.27ZM98.1801 231.27C98.1801 232.84 98.4501 234.32 99.0001 235.72C99.5501 237.12 100.31 238.34 101.29 239.37C102.27 240.41 103.43 241.23 104.77 241.83C106.11 242.44 107.57 242.74 109.16 242.74C110.75 242.74 112.14 242.44 113.46 241.83C114.78 241.22 115.92 240.4 116.88 239.37C117.84 238.33 118.59 237.12 119.13 235.72C119.67 234.32 119.94 232.84 119.94 231.27C119.94 229.7 119.67 228.25 119.13 226.84C118.59 225.43 117.84 224.2 116.88 223.13C115.92 222.07 114.78 221.21 113.46 220.58C112.14 219.94 110.7 219.63 109.16 219.63C107.62 219.63 106.11 219.95 104.77 220.58C103.43 221.22 102.27 222.07 101.29 223.13C100.31 224.2 99.5501 225.43 99.0001 226.84C98.4501 228.25 98.1801 229.73 98.1801 231.27Z" fill="#CF1417"/>
<path d="M133.76 213.43C133.99 213.12 134.22 212.92 134.43 212.84C134.59 212.68 134.82 212.6 135.13 212.59C135.44 212.59 135.74 212.58 136.01 212.58H138.97C139.54 212.58 139.96 212.77 140.23 213.14C140.5 213.51 140.69 213.92 140.79 214.37L141.11 217.48C141.56 216.81 142.11 216.16 142.77 215.51C143.42 214.86 144.2 214.29 145.1 213.78C146 213.27 147.03 212.86 148.18 212.55C149.33 212.24 150.64 212.08 152.08 212.08C154.39 212.08 156.44 212.49 158.25 213.33C160.05 214.16 161.57 215.3 162.8 216.75C164.03 218.2 164.97 219.9 165.6 221.86C166.24 223.82 166.55 225.92 166.55 228.17V247.74C166.55 248.44 166.38 248.97 166.05 249.32C165.72 249.67 165.24 249.85 164.61 249.85H160.15C159.37 249.85 158.84 249.7 158.58 249.41C158.31 249.12 158.18 248.6 158.18 247.85V228.31C158.18 227.27 158 226.26 157.65 225.27C157.3 224.28 156.79 223.4 156.11 222.61C155.43 221.83 154.6 221.2 153.6 220.73C152.6 220.26 151.45 220.03 150.14 220.03C149.24 220.03 148.31 220.21 147.34 220.57C146.37 220.93 145.49 221.45 144.68 222.11C143.88 222.77 143.21 223.58 142.68 224.53C142.15 225.48 141.88 226.55 141.86 227.74V246.75C141.86 247.12 141.84 247.49 141.8 247.86C141.76 248.23 141.68 248.57 141.55 248.86C141.42 249.15 141.24 249.39 141.01 249.56C140.78 249.74 140.47 249.82 140.1 249.82H135.25C134.61 249.82 134.13 249.67 133.83 249.37C133.53 249.07 133.37 248.63 133.37 248.06V214.29C133.37 214.02 133.49 213.72 133.72 213.41" fill="#CF1417"/>
<path d="M171.52 214.31C171.52 213.74 171.71 213.31 172.09 213.02C172.47 212.73 172.89 212.58 173.34 212.58H177.08C177.57 212.58 177.94 212.73 178.2 213.02C178.46 213.31 178.65 213.68 178.79 214.11C178.93 214.54 179.03 215.01 179.09 215.5C179.15 216 179.22 216.45 179.3 216.86C179.73 216.25 180.22 215.66 180.75 215.09C181.29 214.51 181.9 214 182.59 213.55C183.27 213.1 184.05 212.74 184.91 212.46C185.77 212.19 186.75 212.05 187.84 212.05C188.82 212.05 189.7 212.11 190.48 212.24C191.26 212.37 192.01 212.56 192.73 212.83C193.44 213.09 194.14 213.44 194.83 213.86C195.51 214.28 196.25 214.78 197.03 215.34C197.36 215.56 197.65 215.8 197.9 216.07C198.15 216.34 198.27 216.67 198.27 217.04C198.25 217.2 198.22 217.36 198.18 217.54C198.14 217.72 198.06 217.89 197.94 218.07L195.53 221.89C195.37 222.09 195.19 222.23 194.99 222.32C194.78 222.41 194.6 222.45 194.45 222.45C194.14 222.45 193.83 222.37 193.54 222.22C192.89 221.87 192.31 221.54 191.78 221.22C191.25 220.91 190.73 220.64 190.22 220.41C189.71 220.19 189.19 220.01 188.65 219.88C188.11 219.75 187.51 219.69 186.85 219.69C185.11 219.69 183.64 220.25 182.43 221.36C181.23 222.47 180.42 224.01 180.01 225.97V248.09C180.01 249.26 179.4 249.85 178.18 249.85H173.35C172.13 249.85 171.52 249.26 171.52 248.09V214.32V214.31Z" fill="#CF1417"/>
<path d="M232.35 245.73C230.63 247.2 228.74 248.35 226.7 249.19C224.66 250.03 222.41 250.45 219.96 250.45C217.32 250.45 214.81 249.95 212.44 248.95C210.07 247.95 208 246.58 206.22 244.84C204.44 243.1 203.02 241.06 201.98 238.72C200.93 236.38 200.41 233.86 200.41 231.16C200.41 229.42 200.62 227.74 201.06 226.11C201.49 224.49 202.1 222.97 202.89 221.55C203.68 220.13 204.65 218.83 205.78 217.65C206.92 216.47 208.18 215.45 209.58 214.61C210.98 213.77 212.5 213.12 214.13 212.66C215.76 212.2 217.49 211.97 219.31 211.97C220.8 211.97 222.27 212.15 223.72 212.51C225.17 212.87 226.54 213.39 227.84 214.05C229.14 214.72 230.36 215.52 231.5 216.47C232.63 217.42 233.63 218.49 234.49 219.68C235.66 221.32 236.52 223.09 237.07 224.99C237.62 226.89 237.89 228.99 237.89 231.3C237.89 231.87 237.87 232.34 237.82 232.72C237.77 233.1 237.65 233.41 237.45 233.64C237.25 233.88 236.96 234.05 236.57 234.15C236.18 234.26 235.63 234.31 234.93 234.31H208.89C209.14 235.72 209.63 236.96 210.34 238.05C211.05 239.13 211.9 240.06 212.88 240.81C213.86 241.56 214.93 242.13 216.08 242.51C217.23 242.89 218.39 243.08 219.54 243.08C220.42 243.08 221.27 242.99 222.08 242.82C222.89 242.64 223.65 242.41 224.35 242.12C225.05 241.83 225.71 241.49 226.3 241.11C226.9 240.73 227.42 240.33 227.87 239.92C227.87 239.9 227.87 239.89 227.9 239.89C228.13 239.67 228.36 239.5 228.57 239.38C228.78 239.25 229.01 239.19 229.25 239.19C229.43 239.19 229.63 239.25 229.85 239.37C230.08 239.49 230.29 239.68 230.51 239.96C231.04 240.61 231.49 241.14 231.86 241.57C232.23 242 232.54 242.36 232.77 242.66C233.01 242.95 233.18 243.21 233.28 243.42C233.39 243.64 233.44 243.85 233.44 244.07C233.44 244.62 233.07 245.17 232.32 245.71M219.31 219.27C218.16 219.27 217.03 219.48 215.93 219.9C214.83 220.32 213.83 220.89 212.92 221.62C212.01 222.34 211.22 223.19 210.54 224.17C209.86 225.15 209.37 226.21 209.06 227.34H229.85C229.54 226.15 229.06 225.06 228.43 224.07C227.79 223.08 227.03 222.23 226.13 221.52C225.23 220.81 224.2 220.25 223.05 219.86C221.9 219.47 220.65 219.27 219.32 219.27M219.34 200.96C219.49 200.53 219.72 200.22 220 200.02C220.28 199.82 220.59 199.73 220.92 199.73H226.15C226.46 199.73 226.68 199.8 226.81 199.95C226.94 200.1 227 200.28 227 200.49C227 200.65 226.98 200.82 226.96 201C226.93 201.18 226.88 201.37 226.8 201.54L224.01 207.76C223.64 208.58 223.12 208.99 222.45 208.99H217.87C217.54 208.99 217.32 208.91 217.23 208.76C217.13 208.6 217.08 208.42 217.08 208.2C217.08 208 217.08 207.81 217.11 207.61C217.13 207.41 217.19 207.21 217.29 206.99L219.35 200.95L219.34 200.96Z" fill="#CF1417"/>
<path d="M239.9 214.96C239.86 214.8 239.83 214.67 239.8 214.55C239.77 214.43 239.75 214.3 239.73 214.17C239.71 214.03 239.7 213.92 239.7 213.82C239.7 213.45 239.83 213.15 240.1 212.93C240.36 212.7 240.76 212.59 241.29 212.59H246.57C247.04 212.59 247.42 212.71 247.72 212.94C248.01 213.17 248.25 213.51 248.42 213.94L248.95 215.26C249.34 216.37 249.79 217.63 250.28 219.02C250.78 220.41 251.29 221.84 251.82 223.32C252.35 224.8 252.88 226.26 253.4 227.72C253.93 229.18 254.43 230.55 254.9 231.83C255.37 233.11 255.79 234.25 256.16 235.23C256.53 236.22 256.83 236.98 257.04 237.51C257.37 236.55 257.76 235.45 258.2 234.21C258.64 232.97 259.11 231.65 259.62 230.25C260.13 228.85 260.65 227.41 261.18 225.92C261.71 224.43 262.23 222.98 262.74 221.55C263.25 220.12 263.73 218.76 264.19 217.46C264.65 216.16 265.07 214.98 265.44 213.92C265.63 213.45 265.87 213.11 266.16 212.91C266.44 212.71 266.83 212.6 267.32 212.6H272.81C273.42 212.6 273.83 212.7 274.06 212.89C274.29 213.09 274.4 213.34 274.4 213.65C274.4 213.81 274.38 214 274.33 214.24C274.28 214.47 274.24 214.65 274.2 214.77L260.22 248.69C260.06 248.96 259.87 249.23 259.65 249.48C259.42 249.73 259.01 249.86 258.4 249.86H255.7C255 249.86 254.52 249.74 254.28 249.49C254.04 249.25 253.85 248.98 253.74 248.68L239.91 214.97L239.9 214.96Z" fill="#CF1417"/>
<path d="M308.04 245.73C306.32 247.2 304.43 248.35 302.39 249.19C300.34 250.03 298.1 250.45 295.65 250.45C293.01 250.45 290.5 249.95 288.13 248.96C285.76 247.96 283.69 246.59 281.91 244.85C280.13 243.11 278.71 241.07 277.67 238.73C276.62 236.39 276.1 233.88 276.1 231.18C276.1 229.44 276.31 227.76 276.75 226.13C277.18 224.51 277.79 222.98 278.59 221.57C279.38 220.15 280.35 218.85 281.48 217.67C282.62 216.49 283.88 215.48 285.28 214.63C286.68 213.79 288.2 213.14 289.83 212.68C291.46 212.22 293.19 211.99 295.01 211.99C296.5 211.99 297.96 212.17 299.41 212.53C300.86 212.89 302.23 213.41 303.53 214.07C304.83 214.74 306.05 215.54 307.18 216.49C308.32 217.44 309.31 218.51 310.17 219.7C311.34 221.34 312.21 223.11 312.75 225.01C313.3 226.91 313.57 229.01 313.57 231.32C313.57 231.89 313.55 232.36 313.5 232.74C313.45 233.12 313.33 233.43 313.13 233.66C312.93 233.9 312.64 234.07 312.25 234.17C311.86 234.28 311.31 234.33 310.61 234.33H284.57C284.82 235.74 285.31 236.98 286.02 238.07C286.73 239.16 287.58 240.08 288.56 240.83C289.54 241.58 290.61 242.15 291.76 242.53C292.91 242.91 294.07 243.1 295.22 243.1C296.1 243.1 296.95 243.01 297.76 242.84C298.57 242.66 299.33 242.43 300.03 242.13C300.74 241.84 301.39 241.5 301.98 241.12C302.58 240.74 303.1 240.34 303.55 239.93C303.55 239.91 303.55 239.9 303.58 239.9C303.81 239.68 304.04 239.51 304.25 239.39C304.46 239.26 304.69 239.2 304.93 239.2C305.11 239.2 305.31 239.26 305.53 239.38C305.76 239.5 305.98 239.69 306.19 239.97C306.72 240.62 307.17 241.15 307.54 241.58C307.91 242.01 308.22 242.37 308.45 242.67C308.69 242.96 308.86 243.22 308.96 243.43C309.07 243.65 309.12 243.86 309.12 244.08C309.12 244.63 308.75 245.18 308 245.72M295 219.27C293.84 219.27 292.72 219.48 291.62 219.9C290.52 220.32 289.52 220.89 288.61 221.62C287.7 222.34 286.91 223.2 286.23 224.17C285.55 225.15 285.06 226.2 284.75 227.34H305.54C305.23 226.15 304.75 225.06 304.12 224.07C303.48 223.08 302.72 222.23 301.82 221.52C300.92 220.81 299.89 220.25 298.74 219.86C297.59 219.47 296.34 219.27 295.01 219.27" fill="#CF1417"/>
<path d="M79.7601 279.51C79.7601 279.6 79.7401 279.68 79.7001 279.74C79.6601 279.8 79.6101 279.85 79.5501 279.88C79.4901 279.91 79.4101 279.94 79.3301 279.95C79.2501 279.96 79.1601 279.97 79.0701 279.97H78.0801C77.9101 279.97 77.7901 279.93 77.7301 279.84C77.6601 279.75 77.6101 279.64 77.5801 279.5L77.5301 278.83C77.3501 279.01 77.1401 279.19 76.9201 279.35C76.6901 279.51 76.4601 279.65 76.2001 279.77C75.9401 279.89 75.6701 279.98 75.3801 280.05C75.0901 280.12 74.7901 280.15 74.4901 280.15C74.0101 280.15 73.5601 280.09 73.1201 279.96C72.6801 279.84 72.2701 279.66 71.8801 279.44C71.4901 279.22 71.1401 278.95 70.8301 278.63C70.5201 278.31 70.2501 277.96 70.0201 277.58C69.8001 277.2 69.6201 276.78 69.5001 276.34C69.3801 275.9 69.3101 275.44 69.3101 274.96C69.3101 274.48 69.3701 274.02 69.5001 273.58C69.6201 273.14 69.8001 272.72 70.0201 272.34C70.2401 271.96 70.5101 271.61 70.8301 271.29C71.1401 270.98 71.4901 270.71 71.8801 270.48C72.2601 270.26 72.6801 270.08 73.1201 269.96C73.5601 269.84 74.0201 269.78 74.4901 269.78C74.8301 269.78 75.1501 269.82 75.4501 269.89C75.7501 269.96 76.0401 270.06 76.3101 270.19C76.5701 270.32 76.8201 270.47 77.0501 270.66C77.2801 270.84 77.4801 271.04 77.6701 271.26L77.7801 270.41C77.8101 270.31 77.8301 270.24 77.8501 270.18C77.8701 270.12 77.9001 270.07 77.9401 270.03C77.9701 269.99 78.0201 269.97 78.0701 269.96C78.1201 269.95 78.1901 269.94 78.2701 269.94H79.0601C79.1501 269.94 79.2301 269.94 79.3101 269.96C79.3901 269.98 79.4701 270 79.5401 270.03C79.6101 270.07 79.6601 270.11 79.7001 270.17C79.7401 270.23 79.7601 270.3 79.7601 270.39V279.51ZM71.5401 274.95C71.5401 275.37 71.6101 275.77 71.7601 276.15C71.9101 276.53 72.1101 276.86 72.3801 277.14C72.6401 277.42 72.9501 277.65 73.3101 277.82C73.6601 277.98 74.0501 278.07 74.4701 278.07C74.8901 278.07 75.3001 277.99 75.6701 277.82C76.0401 277.65 76.3601 277.43 76.6401 277.14C76.9101 276.85 77.1301 276.52 77.2901 276.15C77.4501 275.77 77.5301 275.38 77.5301 274.95C77.5301 274.52 77.4501 274.14 77.2901 273.76C77.1301 273.38 76.9201 273.05 76.6401 272.77C76.3701 272.49 76.0401 272.26 75.6701 272.09C75.3001 271.92 74.9001 271.84 74.4701 271.84C74.0401 271.84 73.6601 271.92 73.3101 272.09C72.9501 272.26 72.6401 272.49 72.3801 272.77C72.1201 273.06 71.9101 273.39 71.7601 273.76C71.6101 274.14 71.5401 274.53 71.5401 274.95Z" fill="#CF1417"/>
<path d="M89.7402 278.83C89.5602 279.01 89.3501 279.19 89.1301 279.35C88.9102 279.51 88.6701 279.65 88.4101 279.77C88.1501 279.89 87.8802 279.98 87.6002 280.05C87.3102 280.12 87.0101 280.15 86.7001 280.15C85.9901 280.15 85.3301 280.01 84.7101 279.74C84.1001 279.47 83.5601 279.1 83.1101 278.63C82.6501 278.16 82.3001 277.61 82.0401 276.98C81.7801 276.35 81.6501 275.68 81.6501 274.96C81.6501 274.24 81.7801 273.56 82.0401 272.93C82.3001 272.3 82.6501 271.75 83.1101 271.28C83.5601 270.81 84.1001 270.44 84.7101 270.17C85.3301 269.9 85.9901 269.76 86.7001 269.76C87.3401 269.76 87.9101 269.87 88.4001 270.1C88.8901 270.33 89.3201 270.64 89.7001 271.04V267.41C89.7001 267.27 89.7401 267.16 89.8301 267.07C89.9101 266.98 90.0401 266.94 90.1901 266.94H91.4902C91.6102 266.94 91.7301 266.98 91.8301 267.07C91.9301 267.16 91.9902 267.27 91.9902 267.41V279.47C91.9902 279.79 91.8201 279.94 91.4801 279.94H90.3001C90.1401 279.94 90.0301 279.9 89.9801 279.82C89.9201 279.74 89.8701 279.62 89.8201 279.46L89.7501 278.79L89.7402 278.83ZM83.8701 274.97C83.8701 275.39 83.9401 275.79 84.0901 276.17C84.2401 276.55 84.4401 276.87 84.7101 277.15C84.9701 277.43 85.2801 277.65 85.6401 277.81C85.9901 277.97 86.3801 278.06 86.8001 278.06C87.2201 278.06 87.6101 277.98 87.9801 277.82C88.3501 277.66 88.6701 277.44 88.9401 277.16C89.2101 276.88 89.4301 276.56 89.5901 276.2C89.7501 275.83 89.8402 275.44 89.8502 275.03V274.97C89.8502 274.55 89.7701 274.16 89.6101 273.78C89.4501 273.4 89.2401 273.07 88.9601 272.78C88.6901 272.49 88.3602 272.26 87.9902 272.09C87.6202 271.92 87.2201 271.83 86.7901 271.83C86.3601 271.83 85.9801 271.92 85.6301 272.09C85.2701 272.26 84.9601 272.49 84.7001 272.78C84.4401 273.07 84.2301 273.4 84.0801 273.78C83.9301 274.16 83.8601 274.56 83.8601 274.97" fill="#CF1417"/>
<path d="M93.9102 274.97C93.9102 274.49 93.9702 274.03 94.1002 273.58C94.2202 273.13 94.4002 272.72 94.6302 272.34C94.8602 271.95 95.1302 271.61 95.4402 271.29C95.7602 270.98 96.1102 270.71 96.4902 270.48C96.8702 270.26 97.2902 270.08 97.7302 269.96C98.1702 269.84 98.6302 269.77 99.1102 269.77C99.5902 269.77 100.04 269.83 100.49 269.96C100.93 270.08 101.34 270.26 101.73 270.48C102.11 270.7 102.46 270.97 102.78 271.29C103.1 271.6 103.37 271.95 103.59 272.34C103.82 272.72 103.99 273.14 104.12 273.58C104.24 274.02 104.31 274.49 104.31 274.97C104.31 275.45 104.25 275.91 104.12 276.35C104 276.79 103.82 277.2 103.59 277.59C103.36 277.97 103.09 278.32 102.78 278.64C102.46 278.96 102.11 279.22 101.73 279.45C101.35 279.67 100.94 279.85 100.49 279.97C100.05 280.09 99.5902 280.16 99.1102 280.16C98.6302 280.16 98.1702 280.1 97.7302 279.97C97.2902 279.85 96.8802 279.67 96.4902 279.45C96.1102 279.23 95.7602 278.96 95.4402 278.64C95.1202 278.32 94.8502 277.97 94.6302 277.59C94.4002 277.21 94.2302 276.8 94.1002 276.35C93.9802 275.91 93.9102 275.45 93.9102 274.97ZM96.1302 274.97C96.1302 275.39 96.2002 275.79 96.3502 276.17C96.5002 276.55 96.7002 276.87 96.9702 277.15C97.2302 277.43 97.5502 277.65 97.9102 277.81C98.2702 277.97 98.6702 278.06 99.0902 278.06C99.5102 278.06 99.8902 277.98 100.25 277.81C100.61 277.65 100.91 277.43 101.17 277.15C101.43 276.87 101.63 276.54 101.77 276.17C101.92 275.79 101.99 275.39 101.99 274.97C101.99 274.55 101.92 274.16 101.77 273.78C101.63 273.4 101.42 273.07 101.17 272.78C100.91 272.49 100.61 272.26 100.25 272.09C99.8902 271.92 99.5102 271.83 99.0902 271.83C98.6702 271.83 98.2702 271.92 97.9102 272.09C97.5502 272.26 97.2402 272.49 96.9702 272.78C96.7102 273.07 96.5002 273.4 96.3502 273.78C96.2002 274.16 96.1302 274.56 96.1302 274.97Z" fill="#CF1417"/>
<path d="M106.24 270.41C106.24 270.26 106.29 270.14 106.39 270.06C106.49 269.98 106.61 269.94 106.73 269.94H107.74C107.87 269.94 107.97 269.98 108.04 270.06C108.11 270.14 108.16 270.24 108.2 270.35C108.24 270.47 108.26 270.59 108.28 270.73C108.29 270.86 108.31 270.99 108.34 271.1C108.46 270.94 108.59 270.78 108.73 270.62C108.87 270.46 109.04 270.33 109.22 270.2C109.4 270.08 109.61 269.98 109.84 269.91C110.07 269.84 110.33 269.8 110.63 269.8C110.89 269.8 111.13 269.82 111.34 269.85C111.55 269.89 111.75 269.94 111.94 270.01C112.13 270.08 112.32 270.17 112.51 270.29C112.69 270.4 112.89 270.54 113.1 270.69C113.19 270.75 113.27 270.81 113.33 270.89C113.4 270.96 113.43 271.05 113.43 271.15C113.43 271.19 113.42 271.24 113.41 271.28C113.4 271.33 113.38 271.38 113.35 271.42L112.7 272.45C112.66 272.5 112.61 272.54 112.55 272.56C112.5 272.58 112.45 272.6 112.4 272.6C112.32 272.6 112.24 272.58 112.16 272.54C111.99 272.45 111.83 272.36 111.69 272.27C111.55 272.19 111.41 272.11 111.27 272.05C111.13 271.99 110.99 271.94 110.85 271.91C110.7 271.87 110.54 271.86 110.36 271.86C109.89 271.86 109.49 272.01 109.17 272.31C108.85 272.61 108.63 273.02 108.52 273.55V279.51C108.52 279.83 108.36 279.98 108.03 279.98H106.73C106.4 279.98 106.24 279.82 106.24 279.51V270.42V270.41Z" fill="#CF1417"/>
<path d="M125.1 279.51C125.1 279.6 125.08 279.68 125.04 279.74C125 279.8 124.95 279.85 124.89 279.88C124.83 279.91 124.75 279.94 124.67 279.95C124.59 279.96 124.5 279.97 124.41 279.97H123.42C123.25 279.97 123.13 279.93 123.07 279.84C123 279.75 122.95 279.64 122.92 279.5L122.87 278.83C122.69 279.01 122.48 279.19 122.26 279.35C122.03 279.51 121.8 279.65 121.54 279.77C121.28 279.89 121.01 279.98 120.72 280.05C120.43 280.12 120.13 280.15 119.83 280.15C119.35 280.15 118.9 280.09 118.46 279.96C118.02 279.84 117.61 279.66 117.22 279.44C116.83 279.22 116.48 278.95 116.17 278.63C115.86 278.31 115.59 277.96 115.36 277.58C115.14 277.2 114.96 276.78 114.84 276.34C114.72 275.9 114.65 275.44 114.65 274.96C114.65 274.48 114.71 274.02 114.84 273.58C114.96 273.14 115.14 272.72 115.36 272.34C115.58 271.96 115.85 271.61 116.17 271.29C116.48 270.98 116.83 270.71 117.22 270.48C117.6 270.26 118.02 270.08 118.46 269.96C118.9 269.84 119.36 269.78 119.83 269.78C120.17 269.78 120.49 269.82 120.79 269.89C121.09 269.96 121.38 270.06 121.65 270.19C121.91 270.32 122.16 270.47 122.39 270.66C122.62 270.84 122.82 271.04 123.01 271.26L123.12 270.41C123.15 270.31 123.17 270.24 123.19 270.18C123.21 270.12 123.24 270.07 123.28 270.03C123.31 269.99 123.36 269.97 123.41 269.96C123.46 269.95 123.53 269.94 123.61 269.94H124.4C124.49 269.94 124.57 269.94 124.65 269.96C124.73 269.98 124.81 270 124.88 270.03C124.95 270.07 125 270.11 125.04 270.17C125.08 270.23 125.1 270.3 125.1 270.39V279.51ZM116.88 274.95C116.88 275.37 116.95 275.77 117.1 276.15C117.25 276.53 117.45 276.86 117.72 277.14C117.98 277.42 118.29 277.65 118.65 277.82C119 277.98 119.39 278.07 119.81 278.07C120.23 278.07 120.64 277.99 121.01 277.82C121.38 277.65 121.7 277.43 121.98 277.14C122.25 276.85 122.47 276.52 122.63 276.15C122.79 275.77 122.87 275.38 122.87 274.95C122.87 274.52 122.79 274.14 122.63 273.76C122.47 273.38 122.26 273.05 121.98 272.77C121.71 272.49 121.38 272.26 121.01 272.09C120.64 271.92 120.24 271.84 119.81 271.84C119.38 271.84 119 271.92 118.65 272.09C118.29 272.26 117.98 272.49 117.72 272.77C117.46 273.06 117.25 273.39 117.1 273.76C116.95 274.14 116.88 274.53 116.88 274.95Z" fill="#CF1417"/>
<path d="M135.09 278.83C134.91 279.01 134.7 279.19 134.48 279.35C134.26 279.51 134.02 279.65 133.76 279.77C133.5 279.89 133.23 279.98 132.95 280.05C132.66 280.12 132.36 280.15 132.05 280.15C131.34 280.15 130.68 280.01 130.06 279.74C129.45 279.47 128.91 279.1 128.46 278.63C128 278.16 127.65 277.61 127.39 276.98C127.13 276.35 127 275.68 127 274.96C127 274.24 127.13 273.56 127.39 272.93C127.65 272.3 128 271.75 128.46 271.28C128.91 270.81 129.45 270.44 130.06 270.17C130.67 269.9 131.34 269.76 132.05 269.76C132.69 269.76 133.26 269.87 133.75 270.1C134.24 270.33 134.67 270.64 135.05 271.04V267.41C135.05 267.27 135.09 267.16 135.18 267.07C135.26 266.98 135.39 266.94 135.54 266.94H136.84C136.96 266.94 137.08 266.98 137.18 267.07C137.28 267.16 137.34 267.27 137.34 267.41V279.47C137.34 279.79 137.17 279.94 136.83 279.94H135.65C135.49 279.94 135.38 279.9 135.33 279.82C135.27 279.74 135.22 279.62 135.17 279.46L135.1 278.79L135.09 278.83ZM129.21 274.97C129.21 275.39 129.28 275.79 129.43 276.17C129.58 276.55 129.78 276.87 130.05 277.15C130.31 277.43 130.62 277.65 130.98 277.81C131.34 277.97 131.72 278.06 132.15 278.06C132.58 278.06 132.96 277.98 133.33 277.82C133.7 277.66 134.02 277.44 134.29 277.16C134.56 276.88 134.78 276.56 134.94 276.2C135.1 275.83 135.19 275.44 135.2 275.03V274.97C135.2 274.55 135.12 274.16 134.96 273.78C134.8 273.4 134.59 273.07 134.31 272.78C134.04 272.49 133.71 272.26 133.34 272.09C132.97 271.92 132.57 271.83 132.14 271.83C131.71 271.83 131.33 271.92 130.97 272.09C130.61 272.26 130.3 272.49 130.04 272.78C129.78 273.07 129.57 273.4 129.42 273.78C129.27 274.16 129.2 274.56 129.2 274.97" fill="#CF1417"/>
<path d="M139.25 274.97C139.25 274.49 139.31 274.03 139.44 273.58C139.56 273.13 139.74 272.72 139.97 272.34C140.2 271.95 140.47 271.61 140.78 271.29C141.1 270.98 141.45 270.71 141.83 270.48C142.21 270.26 142.63 270.08 143.07 269.96C143.51 269.84 143.97 269.77 144.45 269.77C144.93 269.77 145.38 269.83 145.83 269.96C146.27 270.08 146.68 270.26 147.07 270.48C147.45 270.7 147.8 270.97 148.12 271.29C148.44 271.6 148.71 271.95 148.93 272.34C149.16 272.72 149.33 273.14 149.46 273.58C149.58 274.02 149.65 274.49 149.65 274.97C149.65 275.45 149.59 275.91 149.46 276.35C149.34 276.79 149.16 277.2 148.93 277.59C148.7 277.97 148.43 278.32 148.12 278.64C147.8 278.96 147.45 279.22 147.07 279.45C146.69 279.67 146.28 279.85 145.83 279.97C145.39 280.09 144.93 280.16 144.45 280.16C143.97 280.16 143.51 280.1 143.07 279.97C142.63 279.85 142.22 279.67 141.83 279.45C141.45 279.23 141.1 278.96 140.78 278.64C140.46 278.32 140.19 277.97 139.97 277.59C139.74 277.21 139.57 276.8 139.44 276.35C139.32 275.91 139.25 275.45 139.25 274.97ZM141.48 274.97C141.48 275.39 141.55 275.79 141.7 276.17C141.85 276.55 142.05 276.87 142.32 277.15C142.58 277.43 142.9 277.65 143.26 277.81C143.62 277.97 144.02 278.06 144.44 278.06C144.86 278.06 145.24 277.98 145.6 277.81C145.96 277.65 146.26 277.43 146.52 277.15C146.78 276.87 146.98 276.54 147.12 276.17C147.27 275.79 147.34 275.39 147.34 274.97C147.34 274.55 147.27 274.16 147.12 273.78C146.98 273.4 146.77 273.07 146.52 272.78C146.26 272.49 145.96 272.26 145.6 272.09C145.24 271.92 144.86 271.83 144.44 271.83C144.02 271.83 143.62 271.92 143.26 272.09C142.9 272.26 142.59 272.49 142.32 272.78C142.06 273.07 141.85 273.4 141.7 273.78C141.55 274.16 141.48 274.56 141.48 274.97Z" fill="#CF1417"/>
<path d="M151.58 270.41C151.58 270.26 151.63 270.14 151.73 270.06C151.83 269.98 151.95 269.94 152.07 269.94H153.08C153.21 269.94 153.31 269.98 153.38 270.06C153.45 270.14 153.5 270.24 153.54 270.35C153.58 270.47 153.6 270.59 153.62 270.73C153.64 270.86 153.65 270.99 153.68 271.1C153.8 270.94 153.93 270.78 154.07 270.62C154.21 270.46 154.38 270.33 154.56 270.2C154.74 270.08 154.95 269.98 155.18 269.91C155.41 269.84 155.67 269.8 155.97 269.8C156.23 269.8 156.47 269.82 156.68 269.85C156.89 269.89 157.09 269.94 157.28 270.01C157.47 270.08 157.66 270.17 157.85 270.29C158.03 270.4 158.23 270.54 158.44 270.69C158.53 270.75 158.61 270.81 158.67 270.89C158.74 270.96 158.77 271.05 158.77 271.15C158.77 271.19 158.76 271.24 158.75 271.28C158.74 271.33 158.72 271.38 158.69 271.42L158.04 272.45C158 272.5 157.95 272.54 157.89 272.56C157.84 272.58 157.79 272.6 157.74 272.6C157.66 272.6 157.58 272.58 157.5 272.54C157.33 272.45 157.17 272.36 157.03 272.27C156.89 272.19 156.75 272.11 156.61 272.05C156.47 271.99 156.33 271.94 156.19 271.91C156.04 271.87 155.88 271.86 155.7 271.86C155.23 271.86 154.84 272.01 154.51 272.31C154.19 272.61 153.97 273.02 153.86 273.55V279.51C153.86 279.83 153.7 279.98 153.37 279.98H152.07C151.74 279.98 151.58 279.82 151.58 279.51V270.42V270.41Z" fill="#CF1417"/>
<path d="M168.6 278.87C168.14 279.27 167.63 279.58 167.08 279.8C166.53 280.03 165.93 280.14 165.27 280.14C164.56 280.14 163.88 280.01 163.25 279.74C162.61 279.47 162.05 279.1 161.57 278.63C161.09 278.16 160.71 277.61 160.43 276.98C160.15 276.35 160.01 275.67 160.01 274.95C160.01 274.48 160.07 274.03 160.18 273.59C160.3 273.15 160.46 272.74 160.67 272.36C160.88 271.98 161.14 271.63 161.45 271.31C161.75 270.99 162.1 270.72 162.47 270.49C162.85 270.26 163.26 270.09 163.7 269.97C164.14 269.85 164.6 269.78 165.1 269.78C165.5 269.78 165.9 269.83 166.29 269.93C166.68 270.03 167.05 270.17 167.4 270.34C167.75 270.52 168.08 270.74 168.38 270.99C168.69 271.24 168.95 271.53 169.19 271.85C169.51 272.29 169.74 272.77 169.89 273.28C170.04 273.79 170.11 274.36 170.11 274.98C170.11 275.13 170.11 275.26 170.09 275.36C170.08 275.46 170.04 275.54 169.99 275.61C169.94 275.67 169.86 275.72 169.75 275.75C169.64 275.78 169.5 275.79 169.31 275.79H162.3C162.37 276.17 162.5 276.5 162.69 276.8C162.88 277.09 163.11 277.34 163.37 277.54C163.63 277.74 163.92 277.9 164.23 278C164.54 278.1 164.85 278.15 165.16 278.15C165.4 278.15 165.62 278.13 165.84 278.08C166.06 278.03 166.26 277.97 166.45 277.89C166.64 277.81 166.81 277.72 166.98 277.62C167.14 277.52 167.28 277.41 167.4 277.3C167.46 277.24 167.52 277.2 167.58 277.16C167.64 277.12 167.7 277.11 167.76 277.11C167.81 277.11 167.86 277.13 167.92 277.16C167.98 277.19 168.04 277.24 168.1 277.32C168.24 277.49 168.36 277.64 168.46 277.75C168.56 277.87 168.64 277.96 168.7 278.04C168.76 278.12 168.81 278.19 168.84 278.25C168.87 278.31 168.88 278.37 168.88 278.43C168.88 278.58 168.78 278.72 168.58 278.87M165.09 271.74C164.78 271.74 164.48 271.8 164.18 271.91C163.89 272.02 163.61 272.18 163.37 272.37C163.13 272.57 162.91 272.8 162.73 273.06C162.55 273.32 162.41 273.61 162.33 273.91H167.93C167.85 273.59 167.72 273.29 167.55 273.03C167.38 272.76 167.17 272.54 166.93 272.34C166.69 272.15 166.41 272 166.1 271.89C165.79 271.78 165.45 271.73 165.1 271.73" fill="#CF1417"/>
<path d="M173.19 277.14C173.3 277.31 173.44 277.46 173.61 277.59C173.78 277.72 173.95 277.82 174.13 277.9C174.31 277.98 174.48 278.04 174.64 278.08C174.8 278.12 174.93 278.14 175.02 278.14C175.17 278.14 175.34 278.13 175.54 278.09C175.74 278.06 175.93 278 176.11 277.92C176.29 277.84 176.44 277.73 176.56 277.59C176.68 277.45 176.75 277.27 176.75 277.06C176.75 276.85 176.7 276.68 176.6 276.55C176.5 276.42 176.37 276.31 176.21 276.22C176.04 276.13 175.85 276.06 175.64 276C175.43 275.94 175.2 275.88 174.96 275.81C174.41 275.66 173.94 275.49 173.55 275.28C173.16 275.07 172.84 274.83 172.59 274.57C172.34 274.31 172.16 274.01 172.04 273.69C171.92 273.37 171.87 273.02 171.87 272.64C171.87 272.21 171.95 271.82 172.12 271.47C172.29 271.12 172.53 270.81 172.83 270.56C173.14 270.31 173.5 270.11 173.93 269.97C174.36 269.83 174.84 269.76 175.36 269.76C175.73 269.76 176.06 269.79 176.35 269.86C176.64 269.93 176.91 270.03 177.16 270.16C177.41 270.29 177.64 270.46 177.86 270.66C178.08 270.86 178.3 271.09 178.53 271.36C178.61 271.46 178.65 271.55 178.65 271.64C178.65 271.74 178.6 271.82 178.49 271.91C178.41 271.97 178.32 272.05 178.21 272.15C178.1 272.24 177.99 272.34 177.89 272.43C177.78 272.52 177.68 272.6 177.59 272.66C177.49 272.72 177.42 272.76 177.35 272.76C177.23 272.76 177.12 272.69 177.01 272.55C176.89 272.41 176.78 272.29 176.66 272.19C176.54 272.09 176.42 272 176.3 271.94C176.17 271.87 176.04 271.82 175.89 271.79C175.74 271.76 175.58 271.74 175.41 271.74C175.27 271.74 175.12 271.76 174.96 271.8C174.81 271.84 174.66 271.9 174.53 271.99C174.4 272.07 174.29 272.17 174.21 272.29C174.12 272.41 174.08 272.54 174.08 272.69C174.08 272.86 174.13 273 174.24 273.12C174.35 273.24 174.48 273.34 174.65 273.43C174.82 273.52 175 273.59 175.19 273.65C175.38 273.71 175.57 273.76 175.74 273.81C176.22 273.95 176.67 274.11 177.07 274.28C177.47 274.46 177.82 274.68 178.11 274.93C178.4 275.19 178.63 275.49 178.79 275.83C178.95 276.17 179.03 276.58 179.03 277.04C179.03 277.53 178.93 277.97 178.74 278.36C178.55 278.75 178.28 279.07 177.93 279.34C177.58 279.61 177.18 279.81 176.71 279.96C176.24 280.1 175.73 280.17 175.17 280.17C174.84 280.17 174.5 280.13 174.16 280.06C173.82 279.99 173.49 279.88 173.17 279.73C172.86 279.58 172.57 279.39 172.3 279.15C172.03 278.91 171.81 278.64 171.63 278.32C171.55 278.19 171.51 278.07 171.51 277.96C171.51 277.89 171.53 277.83 171.56 277.78C171.59 277.73 171.64 277.68 171.7 277.63L172.58 276.95C172.66 276.9 172.73 276.88 172.79 276.88C172.86 276.88 172.93 276.91 172.99 276.95C173.05 277 173.11 277.07 173.18 277.15" fill="#CF1417"/>
<path d="M193.83 278.83C193.65 279.01 193.44 279.19 193.22 279.35C193 279.51 192.76 279.65 192.5 279.77C192.24 279.89 191.97 279.98 191.68 280.05C191.39 280.12 191.1 280.15 190.78 280.15C190.07 280.15 189.41 280.01 188.79 279.74C188.18 279.47 187.64 279.1 187.19 278.63C186.73 278.16 186.38 277.61 186.12 276.98C185.86 276.35 185.73 275.68 185.73 274.96C185.73 274.24 185.86 273.56 186.12 272.93C186.38 272.3 186.73 271.75 187.19 271.28C187.64 270.81 188.18 270.44 188.79 270.17C189.41 269.9 190.07 269.76 190.78 269.76C191.42 269.76 191.99 269.87 192.48 270.1C192.97 270.33 193.4 270.64 193.78 271.04V267.41C193.78 267.27 193.82 267.16 193.91 267.07C193.99 266.98 194.12 266.94 194.27 266.94H195.57C195.69 266.94 195.8 266.98 195.91 267.07C196.01 267.16 196.07 267.27 196.07 267.41V279.47C196.07 279.79 195.9 279.94 195.56 279.94H194.38C194.22 279.94 194.11 279.9 194.06 279.82C194 279.74 193.95 279.62 193.9 279.46L193.83 278.79V278.83ZM187.96 274.97C187.96 275.39 188.03 275.79 188.18 276.17C188.33 276.55 188.53 276.87 188.8 277.15C189.06 277.43 189.37 277.65 189.73 277.81C190.08 277.97 190.47 278.06 190.89 278.06C191.31 278.06 191.7 277.98 192.07 277.82C192.44 277.66 192.76 277.44 193.03 277.16C193.3 276.88 193.52 276.56 193.68 276.2C193.84 275.83 193.93 275.44 193.94 275.03V274.97C193.94 274.55 193.86 274.16 193.7 273.78C193.54 273.4 193.32 273.07 193.05 272.78C192.78 272.49 192.45 272.26 192.08 272.09C191.71 271.92 191.31 271.83 190.88 271.83C190.45 271.83 190.07 271.92 189.72 272.09C189.36 272.26 189.05 272.49 188.79 272.78C188.53 273.07 188.32 273.4 188.17 273.78C188.02 274.16 187.95 274.56 187.95 274.97" fill="#CF1417"/>
<path d="M206.58 278.87C206.12 279.27 205.61 279.58 205.06 279.8C204.51 280.03 203.91 280.14 203.25 280.14C202.54 280.14 201.86 280.01 201.23 279.74C200.59 279.47 200.03 279.1 199.55 278.63C199.07 278.16 198.69 277.61 198.41 276.98C198.13 276.35 197.99 275.67 197.99 274.95C197.99 274.48 198.05 274.03 198.16 273.59C198.28 273.15 198.44 272.74 198.65 272.36C198.86 271.98 199.12 271.63 199.43 271.31C199.73 270.99 200.08 270.72 200.45 270.49C200.83 270.26 201.24 270.09 201.68 269.97C202.12 269.85 202.58 269.78 203.08 269.78C203.48 269.78 203.88 269.83 204.27 269.93C204.66 270.03 205.03 270.17 205.38 270.34C205.73 270.52 206.06 270.74 206.36 270.99C206.67 271.24 206.93 271.53 207.17 271.85C207.49 272.29 207.72 272.77 207.87 273.28C208.02 273.79 208.09 274.36 208.09 274.98C208.09 275.13 208.09 275.26 208.07 275.36C208.06 275.46 208.02 275.54 207.97 275.61C207.92 275.67 207.84 275.72 207.73 275.75C207.62 275.78 207.48 275.79 207.29 275.79H200.28C200.35 276.17 200.48 276.5 200.67 276.8C200.86 277.09 201.09 277.34 201.35 277.54C201.61 277.74 201.9 277.9 202.21 278C202.52 278.1 202.83 278.15 203.14 278.15C203.38 278.15 203.6 278.13 203.82 278.08C204.04 278.03 204.24 277.97 204.43 277.89C204.62 277.81 204.79 277.72 204.96 277.62C205.12 277.52 205.26 277.41 205.38 277.3C205.44 277.24 205.5 277.2 205.56 277.16C205.62 277.12 205.68 277.11 205.74 277.11C205.79 277.11 205.84 277.13 205.9 277.16C205.96 277.19 206.02 277.24 206.08 277.32C206.22 277.49 206.34 277.64 206.44 277.75C206.54 277.87 206.62 277.96 206.68 278.04C206.74 278.12 206.79 278.19 206.82 278.25C206.85 278.31 206.86 278.37 206.86 278.43C206.86 278.58 206.76 278.72 206.56 278.87M203.07 271.74C202.76 271.74 202.46 271.8 202.16 271.91C201.87 272.02 201.59 272.18 201.35 272.37C201.11 272.57 200.89 272.8 200.71 273.06C200.53 273.32 200.39 273.61 200.31 273.91H205.91C205.83 273.59 205.7 273.29 205.53 273.03C205.36 272.76 205.15 272.54 204.91 272.34C204.67 272.15 204.39 272 204.08 271.89C203.77 271.78 203.43 271.73 203.08 271.73" fill="#CF1417"/>
<path d="M217.39 279.5C217.34 279.66 217.29 279.78 217.24 279.86C217.19 279.94 217.08 279.98 216.92 279.98H215.73C215.4 279.98 215.23 279.82 215.23 279.51V267.45C215.23 267.31 215.28 267.2 215.37 267.11C215.46 267.02 215.57 266.98 215.69 266.98H216.99C217.15 266.98 217.27 267.03 217.36 267.12C217.45 267.21 217.49 267.32 217.49 267.46V271.09C217.87 270.7 218.31 270.39 218.8 270.16C219.29 269.93 219.86 269.81 220.5 269.81C221.21 269.81 221.87 269.94 222.49 270.22C223.1 270.49 223.64 270.86 224.09 271.33C224.55 271.8 224.9 272.35 225.16 272.98C225.42 273.61 225.55 274.29 225.55 275.01C225.55 275.73 225.42 276.4 225.16 277.03C224.9 277.66 224.55 278.21 224.09 278.68C223.63 279.15 223.1 279.52 222.49 279.79C221.88 280.06 221.21 280.2 220.5 280.2C220.19 280.2 219.89 280.16 219.61 280.1C219.33 280.03 219.05 279.94 218.79 279.82C218.53 279.7 218.29 279.56 218.07 279.4C217.84 279.24 217.64 279.06 217.46 278.88L217.39 279.55V279.5ZM223.33 274.97C223.33 274.55 223.26 274.16 223.11 273.78C222.96 273.4 222.76 273.07 222.49 272.78C222.23 272.49 221.91 272.26 221.56 272.09C221.2 271.92 220.82 271.83 220.4 271.83C219.98 271.83 219.58 271.92 219.21 272.09C218.84 272.26 218.51 272.49 218.24 272.78C217.96 273.07 217.75 273.4 217.59 273.78C217.43 274.16 217.35 274.56 217.35 274.97V275.03C217.35 275.45 217.44 275.84 217.6 276.2C217.76 276.56 217.98 276.89 218.26 277.16C218.53 277.44 218.86 277.66 219.22 277.82C219.59 277.98 219.98 278.06 220.4 278.06C220.82 278.06 221.2 277.98 221.56 277.81C221.92 277.65 222.23 277.43 222.49 277.15C222.75 276.87 222.96 276.54 223.11 276.17C223.26 275.79 223.33 275.39 223.33 274.97Z" fill="#CF1417"/>
<path d="M237.58 279.51C237.58 279.6 237.56 279.68 237.52 279.74C237.48 279.8 237.43 279.85 237.37 279.88C237.31 279.91 237.23 279.94 237.15 279.95C237.07 279.96 236.98 279.97 236.89 279.97H235.9C235.73 279.97 235.61 279.93 235.55 279.84C235.48 279.75 235.43 279.64 235.4 279.5L235.35 278.83C235.17 279.01 234.96 279.19 234.74 279.35C234.51 279.51 234.28 279.65 234.02 279.77C233.76 279.89 233.49 279.98 233.2 280.05C232.91 280.12 232.61 280.15 232.31 280.15C231.83 280.15 231.38 280.09 230.94 279.96C230.5 279.84 230.09 279.66 229.7 279.44C229.31 279.22 228.96 278.95 228.65 278.63C228.34 278.31 228.07 277.96 227.84 277.58C227.62 277.2 227.44 276.78 227.32 276.34C227.2 275.9 227.13 275.44 227.13 274.96C227.13 274.48 227.19 274.02 227.32 273.58C227.44 273.14 227.62 272.72 227.84 272.34C228.06 271.96 228.33 271.61 228.65 271.29C228.96 270.98 229.31 270.71 229.7 270.48C230.08 270.26 230.5 270.08 230.94 269.96C231.38 269.84 231.84 269.78 232.31 269.78C232.65 269.78 232.97 269.82 233.27 269.89C233.57 269.96 233.86 270.06 234.13 270.19C234.39 270.32 234.64 270.47 234.87 270.66C235.1 270.84 235.3 271.04 235.49 271.26L235.6 270.41C235.63 270.31 235.65 270.24 235.67 270.18C235.69 270.12 235.72 270.07 235.76 270.03C235.79 269.99 235.84 269.97 235.89 269.96C235.94 269.95 236.01 269.94 236.09 269.94H236.88C236.96 269.94 237.05 269.94 237.13 269.96C237.21 269.98 237.29 270 237.36 270.03C237.43 270.07 237.48 270.11 237.52 270.17C237.56 270.23 237.58 270.3 237.58 270.39V279.51ZM229.36 274.95C229.36 275.37 229.43 275.77 229.58 276.15C229.73 276.53 229.93 276.86 230.2 277.14C230.46 277.42 230.77 277.65 231.13 277.82C231.48 277.98 231.87 278.07 232.29 278.07C232.71 278.07 233.12 277.99 233.49 277.82C233.86 277.65 234.18 277.43 234.46 277.14C234.73 276.85 234.95 276.52 235.11 276.15C235.27 275.77 235.35 275.38 235.35 274.95C235.35 274.52 235.27 274.14 235.11 273.76C234.95 273.38 234.74 273.05 234.46 272.77C234.19 272.49 233.86 272.26 233.49 272.09C233.12 271.92 232.72 271.84 232.29 271.84C231.86 271.84 231.48 271.92 231.13 272.09C230.77 272.26 230.46 272.49 230.2 272.77C229.94 273.06 229.73 273.39 229.58 273.76C229.43 274.14 229.36 274.53 229.36 274.95Z" fill="#CF1417"/>
<path d="M243.41 279.97C242.99 279.97 242.6 279.9 242.24 279.78C241.87 279.66 241.55 279.48 241.28 279.25C241.01 279.02 240.79 278.74 240.64 278.4C240.48 278.07 240.4 277.69 240.4 277.26V271.92H239.49C239.34 271.92 239.22 271.89 239.15 271.82C239.07 271.75 239.03 271.64 239.03 271.48V270.35C239.03 270.2 239.07 270.09 239.15 270.03C239.23 269.97 239.34 269.94 239.49 269.94H240.4C240.4 269.66 240.4 269.38 240.4 269.11C240.4 268.84 240.4 268.56 240.4 268.28C240.4 268.18 240.43 268.09 240.5 268.03C240.57 267.97 240.67 267.92 240.81 267.87C240.9 267.84 241.01 267.8 241.13 267.76C241.26 267.71 241.39 267.67 241.52 267.63C241.65 267.59 241.78 267.55 241.91 267.52C242.04 267.49 242.14 267.48 242.23 267.48C242.39 267.48 242.5 267.52 242.55 267.61C242.6 267.7 242.62 267.82 242.62 267.96C242.62 268.29 242.62 268.62 242.62 268.95C242.62 269.28 242.62 269.61 242.62 269.94H243.76C243.9 269.94 244 269.98 244.08 270.05C244.15 270.12 244.19 270.23 244.19 270.38V271.46C244.19 271.63 244.15 271.75 244.08 271.82C244.01 271.89 243.9 271.93 243.76 271.93H242.62V273.43C242.62 273.61 242.62 273.78 242.62 273.94C242.62 274.1 242.62 274.27 242.62 274.45V275.95C242.62 275.95 242.62 275.97 242.62 275.98C242.62 275.99 242.62 276 242.62 276.01V277.05C242.62 277.4 242.69 277.65 242.83 277.8C242.97 277.95 243.19 278.03 243.49 278.03C243.6 278.03 243.69 278.07 243.75 278.15C243.81 278.23 243.84 278.32 243.84 278.43V279.53C243.84 279.67 243.8 279.77 243.73 279.85C243.65 279.93 243.55 279.96 243.41 279.96" fill="#CF1417"/>
<path d="M255.99 279.51C255.99 279.6 255.97 279.68 255.93 279.74C255.89 279.8 255.84 279.85 255.78 279.88C255.72 279.91 255.64 279.94 255.56 279.95C255.48 279.96 255.39 279.97 255.3 279.97H254.31C254.14 279.97 254.02 279.93 253.96 279.84C253.89 279.75 253.84 279.64 253.81 279.5L253.76 278.83C253.58 279.01 253.37 279.19 253.15 279.35C252.92 279.51 252.69 279.65 252.43 279.77C252.17 279.89 251.9 279.98 251.61 280.05C251.32 280.12 251.02 280.15 250.72 280.15C250.24 280.15 249.79 280.09 249.35 279.96C248.91 279.84 248.5 279.66 248.11 279.44C247.72 279.22 247.37 278.95 247.06 278.63C246.75 278.31 246.48 277.96 246.25 277.58C246.03 277.2 245.85 276.78 245.73 276.34C245.61 275.9 245.54 275.44 245.54 274.96C245.54 274.48 245.6 274.02 245.73 273.58C245.85 273.14 246.03 272.72 246.25 272.34C246.47 271.96 246.74 271.61 247.06 271.29C247.37 270.98 247.72 270.71 248.11 270.48C248.49 270.26 248.91 270.08 249.35 269.96C249.79 269.84 250.25 269.78 250.72 269.78C251.06 269.78 251.38 269.82 251.68 269.89C251.98 269.96 252.27 270.06 252.54 270.19C252.81 270.32 253.05 270.47 253.28 270.66C253.51 270.84 253.71 271.04 253.9 271.26L254.01 270.41C254.04 270.31 254.06 270.24 254.08 270.18C254.1 270.12 254.13 270.07 254.17 270.03C254.2 269.99 254.25 269.97 254.3 269.96C254.35 269.95 254.42 269.94 254.5 269.94H255.29C255.37 269.94 255.46 269.94 255.54 269.96C255.62 269.98 255.7 270 255.77 270.03C255.84 270.07 255.89 270.11 255.93 270.17C255.97 270.23 255.99 270.3 255.99 270.39V279.51ZM247.77 274.95C247.77 275.37 247.84 275.77 247.99 276.15C248.14 276.53 248.34 276.86 248.61 277.14C248.87 277.42 249.18 277.65 249.54 277.82C249.89 277.98 250.28 278.07 250.7 278.07C251.12 278.07 251.53 277.99 251.9 277.82C252.27 277.65 252.59 277.43 252.87 277.14C253.14 276.85 253.36 276.52 253.52 276.15C253.68 275.77 253.76 275.38 253.76 274.95C253.76 274.52 253.68 274.14 253.52 273.76C253.36 273.38 253.14 273.05 252.87 272.77C252.6 272.49 252.27 272.26 251.9 272.09C251.53 271.92 251.13 271.84 250.7 271.84C250.27 271.84 249.89 271.92 249.54 272.09C249.18 272.26 248.87 272.49 248.61 272.77C248.35 273.06 248.14 273.39 247.99 273.76C247.84 274.14 247.77 274.53 247.77 274.95Z" fill="#CF1417"/>
<path d="M261.82 279.97C261.4 279.97 261.01 279.9 260.65 279.78C260.28 279.66 259.96 279.48 259.69 279.25C259.42 279.02 259.2 278.74 259.05 278.4C258.89 278.07 258.81 277.69 258.81 277.26V271.92H257.9C257.75 271.92 257.63 271.89 257.56 271.82C257.48 271.75 257.44 271.64 257.44 271.48V270.35C257.44 270.2 257.48 270.09 257.56 270.03C257.64 269.97 257.75 269.94 257.9 269.94H258.81C258.81 269.66 258.81 269.38 258.81 269.11C258.81 268.84 258.81 268.56 258.81 268.28C258.81 268.18 258.84 268.09 258.91 268.03C258.98 267.97 259.08 267.92 259.22 267.87C259.31 267.84 259.42 267.8 259.54 267.76C259.67 267.71 259.8 267.67 259.93 267.63C260.06 267.59 260.19 267.55 260.32 267.52C260.45 267.49 260.55 267.48 260.64 267.48C260.8 267.48 260.91 267.52 260.96 267.61C261.01 267.7 261.03 267.82 261.03 267.96C261.03 268.29 261.03 268.62 261.03 268.95C261.03 269.28 261.03 269.61 261.03 269.94H262.17C262.31 269.94 262.41 269.98 262.49 270.05C262.56 270.12 262.6 270.23 262.6 270.38V271.46C262.6 271.63 262.56 271.75 262.49 271.82C262.42 271.89 262.31 271.93 262.17 271.93H261.03V273.43C261.03 273.61 261.03 273.78 261.03 273.94C261.03 274.1 261.03 274.27 261.03 274.45V275.95C261.03 275.95 261.03 275.97 261.03 275.98C261.03 275.99 261.03 276 261.03 276.01V277.05C261.03 277.4 261.1 277.65 261.24 277.8C261.38 277.95 261.6 278.03 261.9 278.03C262.01 278.03 262.1 278.07 262.16 278.15C262.22 278.23 262.25 278.32 262.25 278.43V279.53C262.25 279.67 262.21 279.77 262.14 279.85C262.06 279.93 261.96 279.96 261.82 279.96" fill="#CF1417"/>
<path d="M274.4 279.51C274.4 279.6 274.38 279.68 274.34 279.74C274.3 279.8 274.25 279.85 274.19 279.88C274.13 279.91 274.05 279.94 273.97 279.95C273.89 279.96 273.8 279.97 273.71 279.97H272.72C272.55 279.97 272.43 279.93 272.37 279.84C272.3 279.75 272.25 279.64 272.22 279.5L272.17 278.83C271.99 279.01 271.78 279.19 271.56 279.35C271.33 279.51 271.1 279.65 270.84 279.77C270.58 279.89 270.31 279.98 270.02 280.05C269.73 280.12 269.43 280.15 269.13 280.15C268.65 280.15 268.2 280.09 267.76 279.96C267.32 279.84 266.91 279.66 266.52 279.44C266.13 279.22 265.78 278.95 265.47 278.63C265.16 278.31 264.89 277.96 264.66 277.58C264.44 277.2 264.26 276.78 264.14 276.34C264.02 275.9 263.95 275.44 263.95 274.96C263.95 274.48 264.01 274.02 264.14 273.58C264.26 273.14 264.44 272.72 264.66 272.34C264.88 271.96 265.15 271.61 265.47 271.29C265.78 270.98 266.13 270.71 266.52 270.48C266.9 270.26 267.32 270.08 267.76 269.96C268.2 269.84 268.66 269.78 269.13 269.78C269.47 269.78 269.79 269.82 270.09 269.89C270.39 269.96 270.68 270.06 270.95 270.19C271.21 270.32 271.46 270.47 271.69 270.66C271.92 270.84 272.12 271.04 272.31 271.26L272.42 270.41C272.45 270.31 272.47 270.24 272.49 270.18C272.51 270.12 272.54 270.07 272.58 270.03C272.61 269.99 272.66 269.97 272.71 269.96C272.76 269.95 272.83 269.94 272.91 269.94H273.7C273.78 269.94 273.87 269.94 273.95 269.96C274.03 269.98 274.11 270 274.18 270.03C274.25 270.07 274.3 270.11 274.34 270.17C274.38 270.23 274.4 270.3 274.4 270.39V279.51ZM266.18 274.95C266.18 275.37 266.25 275.77 266.4 276.15C266.55 276.53 266.75 276.86 267.02 277.14C267.28 277.42 267.59 277.65 267.95 277.82C268.3 277.98 268.69 278.07 269.11 278.07C269.53 278.07 269.94 277.99 270.31 277.82C270.68 277.65 271 277.43 271.28 277.14C271.55 276.85 271.77 276.52 271.93 276.15C272.09 275.77 272.17 275.38 272.17 274.95C272.17 274.52 272.09 274.14 271.93 273.76C271.77 273.38 271.55 273.05 271.28 272.77C271.01 272.49 270.68 272.26 270.31 272.09C269.94 271.92 269.54 271.84 269.11 271.84C268.68 271.84 268.3 271.92 267.95 272.09C267.59 272.26 267.28 272.49 267.02 272.77C266.76 273.06 266.55 273.39 266.4 273.76C266.25 274.14 266.18 274.53 266.18 274.95Z" fill="#CF1417"/>
<path d="M171.85 30C130.45 30 96.77 63.68 96.77 105.08C96.77 146.48 130.45 180.16 171.85 180.16C213.25 180.16 246.93 146.48 246.93 105.08C246.93 63.68 213.25 30 171.85 30ZM171.85 34.3C210.88 34.3 242.63 66.05 242.63 105.08C242.63 113.9 241 122.35 238.04 130.14H238.03C234.26 140.65 224.23 147.71 213.06 147.71C198.44 147.71 186.54 135.81 186.54 121.19C186.54 110.73 192.63 101.68 201.44 97.37C203.79 99.35 206.9 100.44 210.2 100.44C210.9 100.44 211.61 100.39 212.33 100.29C216.95 99.64 220.85 96.99 222.76 93.2L223.43 91.87L222.42 90.77C219.54 87.65 215.06 86.17 210.44 86.81C206.17 87.41 202.51 89.72 200.47 93.07C192.74 96.54 186.69 103.11 183.91 111.18C186.76 98.63 194.83 88.05 205.7 81.87C208.71 84.18 212.54 85.42 216.57 85.42C218 85.42 219.46 85.26 220.92 84.95C227.03 83.62 231.97 79.69 234.14 74.45L234.71 73.07L233.62 72.06C229.47 68.19 223.35 66.68 217.24 68.01C211.45 69.27 206.71 72.86 204.39 77.69C192.48 84.16 183.52 95.4 180.06 108.85C182.28 95.97 188.18 83.73 197.04 73.37C198.04 73.56 199.06 73.66 200.08 73.66C204.26 73.66 208.53 72.1 212.09 69.17C216.92 65.19 219.52 59.45 219.05 53.8L218.93 52.32L217.5 51.91C212.04 50.37 205.9 51.81 201.07 55.79C196.5 59.55 193.93 64.89 194.06 70.25C184.66 81.12 178.37 93.99 175.92 107.57C177.11 93.78 180.31 80.34 185.5 67.33C190.68 66.23 195.25 62.56 197.88 57.32C200.69 51.73 200.74 45.42 198.03 40.44L197.32 39.13L195.85 39.34C190.23 40.13 185.21 43.95 182.4 49.53C179.8 54.7 179.57 60.49 181.7 65.27C178.35 73.61 175.78 82.12 174.02 90.79V64.86C178.12 61.55 180.54 56.24 180.54 50.41C180.54 44.16 177.76 38.49 173.1 35.26L171.88 34.41L170.66 35.26C166 38.49 163.22 44.15 163.22 50.41C163.22 56.24 165.64 61.55 169.74 64.86V90.23C167.98 81.76 165.45 73.43 162.17 65.27C164.3 60.49 164.07 54.7 161.47 49.53C158.66 43.94 153.64 40.13 148.02 39.34L146.55 39.13L145.84 40.44C143.13 45.42 143.18 51.73 145.99 57.32C148.62 62.55 153.19 66.22 158.37 67.33C163.55 80.34 166.75 93.78 167.95 107.57C165.5 93.99 159.21 81.11 149.81 70.25C149.94 64.9 147.37 59.55 142.8 55.79C137.97 51.82 131.83 50.37 126.37 51.91L124.94 52.32L124.82 53.8C124.35 59.45 126.96 65.2 131.78 69.17C135.34 72.1 139.61 73.66 143.79 73.66C144.81 73.66 145.83 73.56 146.83 73.37C155.7 83.73 161.59 95.97 163.81 108.85C160.35 95.41 151.39 84.17 139.48 77.69C137.16 72.86 132.42 69.27 126.63 68.01C120.52 66.68 114.39 68.19 110.25 72.06L109.16 73.07L109.73 74.45C111.9 79.69 116.84 83.62 122.95 84.95C124.41 85.27 125.87 85.42 127.3 85.42C131.33 85.42 135.16 84.19 138.17 81.87C149.04 88.05 157.12 98.62 159.96 111.18C157.18 103.1 151.13 96.54 143.4 93.07C141.36 89.72 137.71 87.41 133.43 86.81C128.81 86.17 124.33 87.64 121.45 90.77L120.44 91.87L121.11 93.2C123.02 96.99 126.92 99.64 131.54 100.29C132.25 100.39 132.97 100.44 133.67 100.44C136.97 100.44 140.07 99.35 142.43 97.37C151.24 101.69 157.33 110.74 157.33 121.19C157.33 135.81 145.43 147.71 130.81 147.71C119.64 147.71 109.6 140.65 105.84 130.13L105.72 130.17C102.75 122.36 101.12 113.91 101.12 105.07C101.12 66.04 132.87 34.29 171.9 34.29M210.41 93.29L205.63 93.55C207.05 92.26 208.95 91.37 211.04 91.07C213.61 90.71 216.16 91.3 218.04 92.62C216.59 94.41 214.3 95.67 211.73 96.03C209.76 96.31 207.8 96.02 206.14 95.27L210.47 93.56L210.41 93.29ZM145.1 170.6C142.07 169.36 139.15 167.92 136.35 166.29C149.26 160.44 158.88 149.39 163.05 136.12C160.15 149.54 153.75 162.08 145.11 170.6M167.32 136.89C165.68 149.88 162.34 163.25 157.79 174.46C154.97 173.89 152.2 173.15 149.51 172.25C158.19 163.09 164.45 150.48 167.31 136.89M169.71 148.95V175.82C167.14 175.74 164.61 175.53 162.12 175.18C165.29 167.17 167.88 158.15 169.71 148.95ZM173.45 59.27L172.06 50.71H171.65L170.26 59.27C168.5 56.86 167.48 53.73 167.48 50.44C167.48 46.26 169.12 42.33 171.85 39.81C174.58 42.33 176.22 46.26 176.22 50.44C176.22 53.72 175.2 56.85 173.44 59.27M174 148.33C175.83 157.74 178.45 166.98 181.7 175.16C179.18 175.51 176.61 175.73 174 175.81V148.32V148.33ZM176.51 136.89C179.37 150.47 185.62 163.06 194.29 172.22C191.6 173.12 188.85 173.86 186.03 174.44C181.49 163.24 178.15 149.87 176.51 136.89ZM180.78 136.12C184.94 149.36 194.53 160.4 207.41 166.26C204.62 167.89 201.71 169.33 198.69 170.57C190.06 162.05 183.67 149.52 180.78 136.12ZM218.65 75.73L210.14 76.8C212.12 74.58 214.96 72.92 218.16 72.23C222.24 71.34 226.44 72.11 229.48 74.24C227.6 77.44 224.1 79.89 220.02 80.78C216.81 81.48 213.54 81.15 210.81 79.95L218.77 76.14L218.65 75.74V75.73ZM205.79 61.85L198.75 66.91C199.49 64.01 201.26 61.22 203.81 59.13C207.04 56.47 211.12 55.24 214.8 55.75C214.59 59.46 212.6 63.23 209.37 65.88C206.86 67.95 203.84 69.14 200.89 69.34L206.09 62.15L205.8 61.86L205.79 61.85ZM186.23 51.49C188.11 47.75 191.34 44.98 194.91 43.95C196.22 47.43 195.92 51.68 194.04 55.42C192.55 58.39 190.19 60.75 187.5 62.11L189.98 53.68L189.61 53.5L184.74 60.51C184.28 57.59 184.78 54.39 186.24 51.49M159.1 60.51L154.22 53.5L153.85 53.68L156.33 62.11C153.63 60.75 151.28 58.39 149.79 55.42C147.91 51.68 147.62 47.43 148.92 43.95C152.49 44.98 155.72 47.75 157.6 51.49C159.06 54.39 159.56 57.6 159.1 60.51ZM138.04 61.85L137.75 62.14L142.95 69.33C140 69.13 136.97 67.93 134.47 65.87C131.24 63.21 129.25 59.44 129.04 55.74C132.72 55.24 136.8 56.47 140.03 59.12C142.58 61.22 144.35 64 145.09 66.9L138.05 61.84L138.04 61.85ZM133.02 79.94C130.29 81.14 127.02 81.47 123.81 80.77C119.72 79.88 116.23 77.44 114.35 74.23C117.39 72.1 121.59 71.33 125.67 72.22C128.87 72.92 131.7 74.57 133.69 76.79L125.18 75.72L125.06 76.12L133.02 79.93V79.94ZM137.69 95.28C136.03 96.03 134.07 96.31 132.1 96.04C129.53 95.68 127.24 94.42 125.79 92.63C127.67 91.31 130.23 90.72 132.79 91.08C134.88 91.37 136.78 92.27 138.2 93.56L133.42 93.3L133.36 93.57L137.69 95.28ZM115.62 148.01C120.15 150.57 125.34 152.01 130.76 152.01C144.31 152.01 155.83 143.22 159.95 131.05C156.7 145.75 146.29 158.05 131.92 163.49C125.7 159.23 120.2 154 115.62 148.02M211.83 163.46C197.5 158.01 187.12 145.72 183.87 131.05C187.99 143.22 199.51 152.01 213.06 152.01C218.4 152.01 223.52 150.62 227.99 148.13C223.44 154.05 217.98 159.23 211.82 163.46" fill="#CF1417"/>
</svg>
